<?xml version="1.0" encoding="UTF-8"?> <!-- Generator: Adobe Illustrator 24.0.3, SVG Export Plug-In . SVG Version: 6.00 Build 0) --> <svg xmlns="http://www.w3.org/2000/svg" xmlns:xlink="http://www.w3.org/1999/xlink" id="Слой_1" x="0px" y="0px" viewBox="0 0 300 300" style="enable-background:new 0 0 300 300;" xml:space="preserve"> <g> <path d="M182.8,122.3l26.2-14.2l-3.4-6.3l-32.1,17.4l-15.3-5l5.3-23.4l32.1-33.6l-7.7-7.4l-34.2,35.7l-5.7,25.3l-22.8-7.5l-2.2,6.8 l23.4,7.7l-4.1,18.3l-35.2,19l3.4,6.3l29.7-16.1l-14.9,66.2l-41,14.8l3.6,10l46.5-16.8l18.2-81l21.5-11.6l39.4,12.9l2.2-6.8 L182.8,122.3z M154.7,129.4l1.8-8.2l8.3,2.7L154.7,129.4z"></path> <path d="M176.3,218.3c0-7.1-5.8-12.9-12.9-12.9c-7.1,0-12.9,5.8-12.9,12.9c0,7.1,5.8,12.9,12.9,12.9 C170.5,231.2,176.3,225.4,176.3,218.3z"></path> <rect x="87.2" y="239.2" width="107.8" height="10.7"></rect> </g> </svg> 