<?xml version="1.0" encoding="UTF-8"?> <!-- Generator: Adobe Illustrator 24.0.3, SVG Export Plug-In . SVG Version: 6.00 Build 0) --> <svg xmlns="http://www.w3.org/2000/svg" xmlns:xlink="http://www.w3.org/1999/xlink" id="Слой_1" x="0px" y="0px" viewBox="0 0 300 300" style="enable-background:new 0 0 300 300;" xml:space="preserve"> <style type="text/css"> .st0{fill-rule:evenodd;clip-rule:evenodd;} </style> <g> <path class="st0" d="M109.2,187.6c-9.1-9.9-14.7-23.1-14.7-37.7c0-14.5,5.6-27.8,14.7-37.7l9.4,9.4c-6.7,7.5-10.8,17.4-10.8,28.2 c0,10.9,4.1,20.8,10.8,28.2L109.2,187.6z M187.7,190.7c-9.9,9.1-23.1,14.7-37.7,14.7c-14.5,0-27.8-5.6-37.7-14.7l9.4-9.4 c7.5,6.7,17.4,10.8,28.2,10.8c10.9,0,20.8-4.1,28.2-10.8L187.7,190.7z M190.8,112.2c9.1,9.9,14.7,23.1,14.7,37.7 c0,14.5-5.6,27.8-14.7,37.7l-9.4-9.4c6.7-7.5,10.8-17.4,10.8-28.2c0-10.9-4.1-20.8-10.8-28.2L190.8,112.2z M150,94.3 c14.5,0,27.8,5.6,37.7,14.7l-9.4,9.4c-7.5-6.7-17.4-10.8-28.2-10.8c-10.9,0-20.8,4.1-28.2,10.8l-9.4-9.4 C122.2,99.9,135.5,94.3,150,94.3z"></path> <path d="M109.2,187.6c-9.1-9.9-14.7-23.1-14.7-37.7c0-14.5,5.6-27.8,14.7-37.7l9.4,9.4c-6.7,7.5-10.8,17.4-10.8,28.2 c0,10.9,4.1,20.8,10.8,28.2L109.2,187.6z M187.7,190.7c-9.9,9.1-23.1,14.7-37.7,14.7c-14.5,0-27.8-5.6-37.7-14.7l9.4-9.4 c7.5,6.7,17.4,10.8,28.2,10.8c10.9,0,20.8-4.1,28.2-10.8L187.7,190.7z M190.8,112.2c9.1,9.9,14.7,23.1,14.7,37.7 c0,14.5-5.6,27.8-14.7,37.7l-9.4-9.4c6.7-7.5,10.8-17.4,10.8-28.2c0-10.9-4.1-20.8-10.8-28.2L190.8,112.2z M150,94.3 c14.5,0,27.8,5.6,37.7,14.7l-9.4,9.4c-7.5-6.7-17.4-10.8-28.2-10.8c-10.9,0-20.8,4.1-28.2,10.8l-9.4-9.4 C122.2,99.9,135.5,94.3,150,94.3z"></path> <rect x="144.4" y="49.9" width="11.1" height="200"></rect> <polygon class="st0" points="250,144.3 155.6,144.3 155.6,49.9 144.4,49.9 144.4,144.3 50,144.3 50,155.4 144.4,155.4 144.4,249.9 155.6,249.9 155.6,155.4 250,155.4 "></polygon> <rect x="50" y="144.3" width="200" height="11.1"></rect> </g> </svg> 