<?xml version="1.0" encoding="UTF-8"?> <!-- Generator: Adobe Illustrator 24.0.3, SVG Export Plug-In . SVG Version: 6.00 Build 0) --> <svg xmlns="http://www.w3.org/2000/svg" xmlns:xlink="http://www.w3.org/1999/xlink" id="Слой_1" x="0px" y="0px" viewBox="0 0 300 300" style="enable-background:new 0 0 300 300;" xml:space="preserve"> <style type="text/css"> .st0{fill-rule:evenodd;clip-rule:evenodd;} </style> <g> <path class="st0" d="M51.2,147.1c1.5-52.6,44.3-95.1,97.1-96v11.5c-46.4,0.9-84,38.3-85.5,84.5H51.2 M148.7,248.7 c-53.4-0.8-96.8-44.2-97.5-97.5h11.6c0.8,47,38.9,85.1,85.9,85.9V248.7z M248.8,150.8c-0.6,53-43.2,96.4-96.2,97.9v-11.6 c46.6-1.5,84-39.6,84.5-86.2H248.8z M152.3,51.1c52.2,1.1,94.9,43.4,96.6,95.6h-11.6c-1.7-45.8-39.1-82.9-84.9-84.2V51.1z"></path> <polyline class="st0" points="155.4,101.2 155.4,132.4 144,132.4 144,101.2 124.6,101.2 124.6,91.5 175,91.5 175,101.2 155.4,101.2 "></polyline> <rect x="101.7" y="166.8" width="10.1" height="38"></rect> <rect x="119.8" y="166.8" width="10.1" height="38"></rect> <rect x="165.6" y="166.8" width="10.1" height="38"></rect> <rect x="182.7" y="166.8" width="10.1" height="38"></rect> <rect x="135.7" y="180.3" width="23.1" height="8.5"></rect> <rect x="79" y="144.1" width="137.7" height="9.7"></rect> </g> </svg> 