<?xml version="1.0" encoding="UTF-8"?> <!-- Generator: Adobe Illustrator 24.0.3, SVG Export Plug-In . SVG Version: 6.00 Build 0) --> <svg xmlns="http://www.w3.org/2000/svg" xmlns:xlink="http://www.w3.org/1999/xlink" id="Слой_1" x="0px" y="0px" viewBox="0 0 300 300" style="enable-background:new 0 0 300 300;" xml:space="preserve"> <g> <polygon points="88.3,203.2 88.3,132.3 79.3,132.3 79.3,146.9 70.5,146.9 70.5,171 79.3,171 79.3,175.3 70.5,175.3 70.5,200.5 79.3,200.5 79.3,203.2 "></polygon> <path d="M136.7,106.4c0.9-0.7,2.2-2.1,2.7-2.1h18.4c1,0,4,3.4,4.8,4.2c1.9,1.9,12.7,13,13.8,13.6l6.4-6.2 c-0.6-0.9-18-18.3-19.7-19.4c0.9-1.6,4.3-6.5,4.3-8.3c0-4.1-5.4-6.5-8.3-2.6l-4.9,8.1c-0.5,0.9-0.4,1.2-1.3,1.5 c0-2.3,0.2-5.3,0-7.5c-0.1-1.8-1.9-4-3.8-4c-2.4,0-4.9,0.6-5.3,3.8c-0.2,2.1,0,5.6,0,7.8c-1-0.6-1.6-1.9-2.4-2.9 c-1.6-2.2-5.5-8.7-7.9-8.7h-1.5c-1.9,0-3.8,2.2-3.8,4.3c0,3.2,3.7,6.1,5.3,9.1c-0.6,0.9-1.4,1.5-2.2,2.3c-0.9,0.9-1.6,1.4-2.5,2.3 l-9.4,9.4c-1.2,1.2-3.9,3.6-4.7,4.8l6.2,6.4C122.5,121.1,134.1,108.7,136.7,106.4z"></path> <rect x="152.2" y="209" width="98.4" height="9.1"></rect> <rect x="49.4" y="209" width="95.3" height="9.1"></rect> <rect x="49.4" y="125.2" width="9" height="80"></rect> <rect x="241.6" y="125.2" width="9.1" height="80"></rect> <path d="M190.9,136.9c1.3,1.3,2.6,2.1,3.3,3.2l-5,4.8c-0.6,0.6-0.8,0.6-1.4,1.1c-1.4,1.3-2.7,3.3-4.2,3.3h-31.5v9.1h35.5 c0.8,0,1.9-1.6,2.4-2.1l17.2-16c-1.1-1.7-8-7.8-9.9-9.8c-1.6-1.6-9-9.2-10-9.9l-6.3,6.5C182.4,128,189,134.9,190.9,136.9z"></path> <path d="M110.5,147.3l-7.6-7.2c0.2-0.3,12-11.5,13.1-13.1l-6.4-6.2l-12.2,12.1c-2.1,2.2-6,5.1-7.6,7.5c0.6,0.9,4.8,4.5,6,5.6 l7.3,6.8c1,0.9,5.7,5.7,6.3,5.7h35.2v-9.1h-31.5C112.5,149.4,111.1,147.8,110.5,147.3z"></path> <polygon points="224.7,197.7 224.7,144.9 212.4,144.9 212.4,154.2 215.6,154.2 215.6,197.7 "></polygon> <path d="M192,200.7h14.6v-9.3h-12.3c-0.7,0-5.6-3.8-6.3-3.8h-35.7v9.1h33C185.9,196.7,191.2,200.7,192,200.7z"></path> <path d="M104.4,190.3l-13.5,9.1c0.9,1.4,4.7,6.3,5,7.5c2.1-1.1,15-10.3,15.6-10.3h33.2v-9.1H109 C107.9,187.6,105.8,189.4,104.4,190.3z"></path> <rect x="203.1" y="111.9" width="47.6" height="9.1"></rect> <rect x="49.4" y="111.9" width="46.8" height="9.1"></rect> <rect x="135.1" y="111.9" width="26.9" height="9.1"></rect> </g> </svg> 