<?xml version="1.0" encoding="UTF-8"?> <!-- Generator: Adobe Illustrator 24.0.3, SVG Export Plug-In . SVG Version: 6.00 Build 0) --> <svg xmlns="http://www.w3.org/2000/svg" xmlns:xlink="http://www.w3.org/1999/xlink" id="Слой_1" x="0px" y="0px" viewBox="0 0 300 300" style="enable-background:new 0 0 300 300;" xml:space="preserve"> <style type="text/css"> .st0{fill-rule:evenodd;clip-rule:evenodd;} </style> <g> <path class="st0" d="M118.5,84.7c0.6,0.6,1.5,0.8,3.1,2.5c2.5,2.5,4.2,5.7,4.8,9.3c0.1,0.4,0.1,0.8,0.2,1.3c0,0.3,0,1.1,0.1,1.4 l39,0c-0.2-3.7-0.1-4.9-0.7-8.8c-1.6-9.9-5.7-18.7-11.7-26.2c-0.8-1-1.5-1.7-2.2-2.5c-0.2-0.2-0.4-0.4-0.6-0.6l-1.8-1.8 c-2.6-2.5-4.9-4.3-7.9-6.4c-0.5-0.3-2.5-1.7-3-1.8l-9.7,16.8c-1.6,2.8-3.3,5.6-4.9,8.4c-0.8,1.4-1.6,2.8-2.4,4.2 c-0.4,0.7-0.8,1.4-1.2,2.1C119.5,83,118.6,84.5,118.5,84.7"></path> <path class="st0" d="M82.1,147.4c0.3,0.2,1,0.6,1.4,0.8c3.7,2,6.7,3.2,10.9,4.5c4.7,1.4,10.1,2.2,15.4,2.2c7.9,0,15-1.5,22-4.4 c1.1-0.4,2-0.9,3-1.4c0.8-0.3,2.5-1.4,2.9-1.5c-0.1-0.3-2.1-3.6-2.4-4.3c-3.2-5.6-6.5-11.2-9.7-16.8c-0.8-1.5-1.6-2.8-2.4-4.2 c-0.2-0.3-4.7-8.1-4.8-8.4c-0.2,0-1.4,0.7-1.9,0.8c-3.5,1.4-7.5,1.7-11.1,0.6c-2-0.6-3.2-1.4-3.7-1.6c-0.4,0.7-0.8,1.4-1.2,2.1 l-3.6,6.3c-1.6,2.9-3.2,5.6-4.9,8.4c-1.6,2.8-3.2,5.7-4.9,8.4c-0.8,1.4-1.6,2.8-2.4,4.2L82.1,147.4"></path> <path class="st0" d="M54.2,98.9c1.2,0.1,2.6,0,3.8,0H85c2.6,0,5.1,0,7.7,0c0.5,0,0.5,0.1,0.5-0.3c0-1.9,0.5-4,1.2-5.7 c1.3-3.2,3.7-6.1,6.6-7.9l0.6-0.4l-9.7-16.9c-1.6-2.8-3.2-5.5-4.9-8.4L83.3,53c-0.4-0.7-0.8-1.4-1.2-2.1c-0.8,0.2-5.1,3.3-5.7,3.8 c-0.7,0.5-3.8,3-4.5,3.8L68.3,62L66.7,64c-6.9,8.3-11.4,19.3-12.3,30.4C54.3,95.3,54.1,98.1,54.2,98.9"></path> <path class="st0" d="M120.9,100.1c0.2-1.6-0.1-3.4-0.6-4.8c-1.3-3.7-4.9-6.8-9.3-7.2c-6.5-0.5-11.4,4.2-12,10 c-0.2,1.7,0.1,3.4,0.6,4.8c2.8,7.4,12,9.5,17.6,4.4C119,105.8,120.5,103.6,120.9,100.1"></path> <path class="st0" d="M118.2,84.8c0.9,0.6,1,0.6,2,1.4c0.5,0.4,1.4,1.2,1.8,1.7c0.1,0.1,0.2,0.2,0.3,0.4l1,1.2 c0.2,0.3,0.4,0.5,0.6,0.8c0.8,1.3,1.3,2.3,1.8,3.7c0.6,1.8,0.8,3.3,0.8,5.4H166v-0.1c0-1.1,0-2.3-0.1-3.4c0-0.2,0-0.4,0-0.6 l-0.3-3.2c-0.6-5-1.9-9.5-3.7-14.1l-1.5-3.3c-0.1-0.3-0.3-0.5-0.4-0.8c-1.8-3.6-4.5-7.7-7.1-10.8c-1.1-1.3-3.1-3.5-4.3-4.6l-3.5-3 c-1.8-1.4-3.6-2.8-5.6-3.9c-0.3-0.2-1.3-0.8-1.5-0.9c-0.2,0.1-0.8,1.2-1,1.5l-4,7c-0.2,0.4-0.4,0.7-0.6,1.1l-1.8,3.2 c-0.2,0.4-0.4,0.7-0.6,1.1c-0.2,0.4-0.4,0.7-0.6,1.1l-1.2,2.2c-0.2,0.4-0.4,0.7-0.6,1.1l-6.8,11.7c-0.4,0.7-0.8,1.4-1.2,2.1 C119.3,82.9,118.2,84.6,118.2,84.8 M118.5,84.7c0.1-0.3,1-1.8,1.2-2.1c0.4-0.7,0.8-1.4,1.2-2.1c0.8-1.4,1.6-2.8,2.4-4.2 c1.6-2.8,3.3-5.6,4.9-8.4L138,51c0.4,0.1,2.5,1.5,3,1.8c3,2.1,5.3,3.9,7.9,6.4l1.8,1.8c0.2,0.2,0.4,0.4,0.6,0.6 c0.7,0.8,1.4,1.5,2.2,2.5c6,7.5,10.1,16.3,11.7,26.2c0.6,3.9,0.5,5.1,0.7,8.8l-39,0c-0.1-0.2,0-1.1-0.1-1.4c0-0.4-0.1-0.8-0.2-1.3 c-0.6-3.6-2.3-6.8-4.8-9.3C120,85.5,119.1,85.3,118.5,84.7z"></path> <path class="st0" d="M111.4,155.1h-3.3c-3.1,0-8.3-0.7-11.3-1.5c-2.1-0.5-4.6-1.2-6.5-2l-3.7-1.6c-0.7-0.4-2.1-1-2.8-1.4 c-0.2-0.1-0.4-0.2-0.7-0.4l-1.3-0.8c0-0.2,0.2-0.4,0.3-0.6c0.9-1.5,1.8-3.2,2.8-4.8l0.9-1.6c0.1-0.2,0.2-0.3,0.3-0.5l2.5-4.2 c1-1.7,2-3.6,3.1-5.3c0.2-0.4,0.4-0.7,0.6-1.1c0.2-0.4,0.4-0.7,0.6-1.1c1.1-1.9,2.3-4,3.4-5.9c0.1-0.2,0.2-0.3,0.3-0.5 c0.2-0.4,0.4-0.7,0.6-1.1l3.7-6.4c0.1-0.2,0.2-0.4,0.3-0.6c0.1-0.2,0.2-0.3,0.3-0.5c0.3,0,0.3,0.1,0.5,0.2l1.3,0.6 c0.5,0.3,1.2,0.5,1.8,0.7c2.2,0.7,3.6,0.8,5.9,0.8c1.9,0,4.2-0.7,5.9-1.4c0.4-0.2,1.3-0.7,1.6-0.8c0.4,0.7,0.8,1.4,1.2,2.2 c0.4,0.7,0.8,1.4,1.2,2.1l2.4,4.3c0.4,0.7,0.8,1.4,1.3,2.2l2.5,4.3c1.2,2.1,2.5,4.3,3.7,6.4c0.4,0.7,0.8,1.4,1.2,2.1 c1,1.7,2.1,3.6,3.1,5.3l2.5,4.3c0.1,0.2,0.5,0.9,0.6,1.1l-2.8,1.5c-2.7,1.3-6.1,2.8-9,3.6c-4,1.1-6.2,1.6-10.5,2.1 C113.9,155,112.7,155.1,111.4,155.1 M82.1,147.4l2.4-4.2c0.8-1.4,1.6-2.8,2.4-4.2c1.6-2.8,3.2-5.6,4.9-8.4c1.6-2.8,3.2-5.6,4.9-8.4 l3.6-6.3c0.4-0.7,0.9-1.4,1.2-2.1c0.5,0.1,1.6,0.9,3.7,1.6c3.6,1.1,7.6,0.9,11.1-0.6c0.5-0.2,1.7-0.8,1.9-0.8 c0.1,0.3,4.7,8.1,4.8,8.4c0.8,1.4,1.6,2.7,2.4,4.2c3.2,5.6,6.5,11.2,9.7,16.8c0.4,0.6,2.3,3.9,2.4,4.3c-0.4,0.1-2.1,1.2-2.9,1.5 c-1,0.5-1.9,0.9-3,1.4c-7,2.9-14.1,4.4-22,4.4c-5.3,0-10.7-0.8-15.4-2.2c-4.2-1.2-7.2-2.5-10.9-4.5C83.1,148,82.3,147.7,82.1,147.4 z"></path> <path class="st0" d="M54,97.9v1.3h39.4c0-2,0.3-3.6,0.8-5.1c1-3,2.2-4.8,4.3-6.9c0.2-0.2,0.2-0.2,0.4-0.3c0.4-0.3,0.6-0.5,1.2-1 c0.4-0.3,1.4-1,1.8-1.1c-0.1-0.2-0.2-0.4-0.3-0.5c-1.1-1.9-2.7-4.6-3.7-6.4c-0.6-1.2-1.5-2.6-2.2-3.8c-1.5-2.8-3.4-5.7-4.9-8.5 L89.9,64c-0.1-0.2-0.2-0.3-0.3-0.5c-0.2-0.4-0.4-0.7-0.6-1.1l-4.3-7.5c-0.1-0.2-0.2-0.3-0.3-0.5l-2.2-3.8c-0.2,0-0.6,0.3-0.7,0.4 c-0.3,0.2-0.5,0.3-0.7,0.4c-2.2,1.3-4.2,2.8-6.2,4.4l-1.6,1.3c-0.1,0.1-0.2,0.2-0.3,0.3l-5,5.1l-1.3,1.6c-1.9,2.5-2.7,3.5-4.4,6.3 c-3.9,6.4-6.4,13.4-7.4,20.9C54.2,93.1,54,96,54,97.9 M54.2,98.9c-0.1-0.8,0.1-3.6,0.2-4.5c0.9-11.1,5.4-22.1,12.3-30.4l1.6-1.9 l3.5-3.6c0.7-0.8,3.8-3.3,4.5-3.8c0.6-0.5,4.9-3.6,5.7-3.8c0.4,0.7,0.8,1.4,1.2,2.1l3.6,6.3c1.7,2.9,3.2,5.6,4.9,8.4l9.7,16.9 l-0.6,0.4c-2.9,1.8-5.3,4.7-6.6,7.9c-0.7,1.7-1.2,3.8-1.2,5.7c0,0.5,0,0.4-0.5,0.3c-2.6,0-5.1,0-7.7,0H58 C56.8,98.9,55.4,99,54.2,98.9z"></path> <path class="st0" d="M98.6,99.1c0,1.2,0.2,2.5,0.6,3.6l0.6,1.4c0.1,0.2,0.2,0.3,0.2,0.5l0.5,0.9c0.8,1.1,0.4,0.6,1.2,1.5l1.5,1.3 c1.6,1.2,3.9,2.1,6.1,2.1c2.3,0,4.2-0.3,6.1-1.5c0.3-0.2,0.6-0.3,0.9-0.5c0.8-0.6,0.8-0.6,1.5-1.3c3.5-3.5,4.2-8.8,1.8-13.3 c-0.6-1.1-1.6-2.3-2.5-3.1c-1.7-1.5-4.5-2.7-6.9-2.7c-2.1,0-3.6,0.2-5.3,1.1c-0.3,0.2-0.6,0.3-0.9,0.5c-0.5,0.3-1.2,0.8-1.6,1.1 l-0.7,0.7c-0.8,1-1,1.1-1.7,2.4C99.2,95.2,98.6,97,98.6,99.1 M120.9,100.1c-0.4,3.5-1.9,5.6-3.7,7.3c-5.6,5-14.8,2.9-17.6-4.4 c-0.5-1.4-0.8-3.1-0.6-4.8c0.6-5.8,5.5-10.5,12-10c4.4,0.3,8,3.5,9.3,7.2C120.8,96.7,121.1,98.5,120.9,100.1z"></path> <rect x="140.4" y="195.6" width="53.6" height="53.6"></rect> <polyline class="st0" points="167.8,139 91,181.7 97.3,194.1 168,155.5 239.7,194.1 246,181.7 167.8,139 "></polyline> </g> </svg> 