<?xml version="1.0" encoding="UTF-8"?> <!-- Generator: Adobe Illustrator 24.0.3, SVG Export Plug-In . SVG Version: 6.00 Build 0) --> <svg xmlns="http://www.w3.org/2000/svg" xmlns:xlink="http://www.w3.org/1999/xlink" id="Слой_1" x="0px" y="0px" viewBox="0 0 300 300" style="enable-background:new 0 0 300 300;" xml:space="preserve"> <style type="text/css"> .st0{fill-rule:evenodd;clip-rule:evenodd;} </style> <g> <path class="st0" d="M108,170.6v72.3c0,4.1,3,7,7,7h72.5c2.1,0,3.9-1.2,4.9-2.4c1.1-1.4,1.9-3.2,1.9-5.6v-69.2 c0-4.9-3.1-8.8-6.8-8.8h-73.2C112.2,163.9,108,166.4,108,170.6"></path> <path class="st0" d="M95.6,49.9h0.2c0.3,0.1,0.8,0.7,2.2,1.8l3.9,3.6c0.4,0.4,0.5,0.5,0.9,0.8l13.3,11.8c1.7,1.8,7,6,9.2,8 c3.2,2.9,1.1,1.5,6.8,0.2l16.6-2.1c0.5-1.9,1.5-7.7,1.5-9.8l5.7,0.8c1.8,0.2,3.7,0.6,5.6,0.9c3.4,0.6,2.8-0.6,2.1,3.4 c-0.3,1.7-0.8,3.7-0.8,5.5c0.7,0.4,4.2,1.1,5.2,1.3c1.8,0.3,3.2,1,4.9,1.4l4.9,1.6c1.6,0.5,2.6,1.3,4.5,1.8 c-0.4,1.3-1.8,3.4-2.4,4.9c-0.3,0.7-0.4,0.9-0.8,1.4c-0.6,0.9-0.4,0.8-0.7,1.8l-2.4,4.6L165,89.7c-1.2-0.4-2.9-0.5-4-1 c0,1.5-0.3,2.9-0.6,4.4l-0.4,4.3c-0.2,1.3-0.5,2.9-0.7,4.3c-0.2,1.4-0.5,2.7-0.5,4.3c0.9,0.2,5.1,4.3,6.3,5.2l3,2.7 c0.6,0.5,1,1,1.5,1.5l2.3,2c0.5,0.4,0.4,0.2,0.9,0.6l10.3,9.4l-8.1,9.2c-0.4,0.5-0.7,0.7-1.2,1.1l-7.7-6.8 c-0.5-0.5-0.6-0.5-1.1-0.9c-0.5-0.4-0.7-0.7-1.1-1.1c-0.5-0.5-0.6-0.4-1.1-0.9c-2-1.8-4.2-4-6.4-5.6l-2.3,17.7 c-0.2,1.3-0.5,2.9-0.7,4.3l-0.5,4.5c-0.2,3-1.3,5.8-1.3,8.7c-2.6,0-4.9-0.5-7.4-0.9l-6.4-0.9c-0.8-0.8,0.8-6.8,1-8.3l1.2-8.6 c0.2-1,0.1-2,0.2-3l1.3-8.2c0.2-1.1,0.1-2,0.3-3l2-13.7l-3.7-3.3c-3.5-3.3-7.7-6.4-11-9.8c-0.8-0.8-4.2-4.2-4.8-4.2 c-1.3,0-5,2.5-6.5,3.3c-2,1-3.9,2.7-5.8,4c-1.6-1-2.6-3.5-3.7-5c-0.4-0.5-0.3-0.3-0.6-0.6c-1.2-1.3-2.1-2.9-3.2-4.3 c-0.4-0.5-0.6-0.7-0.7-1.5c1.1-0.3,1.4-0.9,2.2-1.5c1.2-0.9,2.5-1.5,3.7-2.3l0.3-0.2c1-0.8,2.1-0.9,2.9-1.9c-1-1.4-7.9-6.9-9.9-8.8 L95,67.7c-1.6-1.6-7.6-6.2-8.5-7.6c0.1-0.1,0.4-0.7,0.5-0.8c0.5-0.7,0.2-0.2,0.7-0.6c0.7-0.6,0.5-0.7,1.2-1.3l3.5-3.8 c0,0,0.1-0.1,0.1-0.2l0.5-0.6c0,0,0.1-0.1,0.1-0.1C94.8,50.9,95.2,50,95.6,49.9 M146,94.1c-1.6-0.8-3.8-3.3-4.2-3.6 c-0.8-0.5-1.6-1.3-1.8-1.9c2.7,0,4.5-0.5,7-0.5C146.8,88.6,146,93.4,146,94.1z"></path> <path class="st0" d="M180.7,95.6l1.9,1.1c1,0.7,2.9,1.6,3.8,2.4l7.7,6.3c0.4,0.4,0.5,0.4,0.9,0.8c0.2,0.2,0.1,0.2,0.4,0.4l2.6,2.9 c4.3,5.6,2.9,3.8,6.5,9.3c0.5,0.7,0.6,1.4,1,2.2l12.5-6.5c-0.2-0.5-0.3-0.8-0.5-1.2c-0.2-0.4-0.5-0.7-0.8-1.2 c-1.4-2.1-0.5-1.4-3-4.8l-1.3-2.1c-1.3-1.9-5.1-6-6.4-7.6c-2.4-3.2-9.4-8.5-11.4-9.8l-6.1-3.9c-0.5-0.3-0.8-0.5-1.3-0.7l-3.3,6.2 c-0.6,0.9-0.5,1.4-1.6,3.2C181.9,93.2,180.9,95,180.7,95.6"></path> <path class="st0" d="M81.2,118.4l9.3,4.7c1.2,0.7,2,1,3.2,1.5c1.2-1.8,0.7-1.3,1.4-2.9l3.1-5.4c0.6-1,1.2-1.7,1.9-2.6 c1.1-1.5,2.5-3.7,3.7-4.8c1.1-1.1,3.6-3.2,4.3-4.5c-0.3-0.5-0.6-0.7-1-1.2c-0.4-0.5-0.7-0.9-1.1-1.4l-6.4-8.3 c-2.8,1.9-5.5,5.6-7.8,8.2l-7.8,11.3L81.2,118.4"></path> <path class="st0" d="M207.7,125.4c0.1,1.4,1.1,3,1.5,4.5c1.8,6.2,2.7,11.1,2.7,17.8h14.3c0-2.7-1-12.9-1.7-15.3l-1.8-6.7 c-0.2-0.5-0.3-0.7-0.6-1.4c-0.1-0.3-0.3-1.2-0.5-1.8l-1.4-3.1L207.7,125.4"></path> <path class="st0" d="M82,171.9c0.7,0,1-0.6,1.3-1l2.2-2.3c0.5-0.6,0.5-0.7,1-1.3c1.4-1.6,2.9-3,4.4-4.6l7.6-8.2 c0.6-0.5,0.7-0.6,0.8-1.4c-11.5,0-23,0-34.5,0c0.3,1.2,0.7,1,2,2.5l6.5,7c0.5,0.6,0.4,0.7,1,1.2l3.2,3.5c0.7,0.7,1.7,1.5,2.2,2.3 C80.1,170,81.5,171.9,82,171.9"></path> <path class="st0" d="M218.3,171.9l2.1-2.2c0.8-0.8,1.5-1.5,2.2-2.3c0.8-1,1.3-1.4,2.2-2.3l5.4-5.9c1-1.1,5-5.3,5.2-6.1h-34.5 c0.3,1.4,0.5,0.9,1.4,1.9l2.8,2.9c3.4,3.4,7.5,8.2,10.9,11.6C217.1,170.8,217.1,171.6,218.3,171.9"></path> <path class="st0" d="M75,146.4v1.3h14c0-1.1,0.1-1.6,0.2-2.3c0.3-2.4-0.2-2.3,0.8-7.4l0.8-4.4c0.4-1.4,1.2-2.8,1.2-4.4 c-1.6,0-1.1-0.4-3.2-1.3c-0.6-0.3-0.9-0.4-1.5-0.8c-0.6-0.3-1.1-0.5-1.7-0.7c-0.1,0-0.1,0-0.2-0.1l-4.4-2.2c-0.6-0.3-1-0.6-1.8-0.7 c-0.2,1-0.5,1.4-0.9,2.4l-1.5,5.3c-0.3,1.1-0.3,2-0.5,3.1l-1,5.7C75.2,141.7,75,144.1,75,146.4"></path> </g> </svg> 