<?xml version="1.0" encoding="UTF-8"?> <!-- Generator: Adobe Illustrator 24.0.3, SVG Export Plug-In . SVG Version: 6.00 Build 0) --> <svg xmlns="http://www.w3.org/2000/svg" xmlns:xlink="http://www.w3.org/1999/xlink" id="Слой_1" x="0px" y="0px" viewBox="0 0 300 300" style="enable-background:new 0 0 300 300;" xml:space="preserve"> <style type="text/css"> .st0{fill-rule:evenodd;clip-rule:evenodd;} </style> <g> <path class="st0" d="M105,132.3h89.4c7.8,0,14.1,6.4,14.1,14.1v89.4c0,7.8-6.4,14.1-14.1,14.1H105c-7.8,0-14.1-6.4-14.1-14.1v-89.4 C90.8,138.6,97.2,132.3,105,132.3z"></path> <path d="M105,132.3h89.4c7.8,0,14.1,6.4,14.1,14.1v89.4c0,7.8-6.4,14.1-14.1,14.1H105c-7.8,0-14.1-6.4-14.1-14.1v-89.4 C90.8,138.6,97.2,132.3,105,132.3z"></path> <rect x="90.8" y="110.7" class="st0" width="117.6" height="14.1"></rect> <rect x="90.8" y="110.7" width="117.6" height="14.1"></rect> <polyline points="146.4,64.1 146.4,49.9 148.2,49.9 148.2,58 152.3,53.8 154.6,53.8 150.6,57.7 155,64.1 152.8,64.1 149.4,58.9 148.2,60.1 148.2,64.1 146.4,64.1 "></polyline> <path d="M157.5,58.8c0,1.4,0.3,2.3,0.8,3c0.5,0.6,1.2,0.9,2,0.9c0.8,0,1.5-0.3,2-0.9c0.5-0.6,0.8-1.6,0.8-2.9 c0-1.3-0.3-2.2-0.8-2.9c-0.6-0.6-1.2-1-2-1c-0.8,0-1.4,0.3-2,0.9C157.8,56.6,157.5,57.6,157.5,58.8 M156.1,65l1.7,0.3 c0.1,0.5,0.3,0.9,0.6,1.1c0.4,0.3,1,0.5,1.8,0.5c0.8,0,1.4-0.2,1.9-0.5c0.4-0.3,0.7-0.8,0.9-1.4c0.1-0.4,0.1-1.1,0.1-2.2 c-0.8,0.9-1.7,1.4-2.9,1.4c-1.4,0-2.5-0.5-3.3-1.5c-0.8-1-1.2-2.3-1.2-3.7c0-1,0.2-1.9,0.5-2.7c0.4-0.8,0.9-1.5,1.6-1.9 c0.7-0.5,1.5-0.7,2.4-0.7c1.2,0,2.2,0.5,3,1.5v-1.2h1.6v8.9c0,1.6-0.2,2.7-0.5,3.4c-0.3,0.7-0.8,1.2-1.6,1.6 c-0.7,0.4-1.6,0.6-2.6,0.6c-1.2,0-2.2-0.3-3-0.8C156.4,67,156,66.1,156.1,65z"></path> <path d="M173,64.1V53.8h1.6v1.4c0.3-0.5,0.8-0.9,1.3-1.2c0.5-0.3,1.2-0.5,1.8-0.5c0.8,0,1.4,0.2,1.9,0.5c0.5,0.3,0.8,0.8,1,1.3 c0.8-1.2,1.9-1.8,3.2-1.8c1,0,1.8,0.3,2.4,0.9c0.6,0.6,0.8,1.4,0.8,2.6v7.1h-1.7v-6.5c0-0.7-0.1-1.2-0.2-1.5 c-0.1-0.3-0.3-0.6-0.6-0.7c-0.3-0.2-0.7-0.3-1.1-0.3c-0.7,0-1.3,0.2-1.8,0.7c-0.5,0.5-0.7,1.3-0.7,2.3v6h-1.7v-6.7 c0-0.8-0.1-1.4-0.4-1.8c-0.3-0.4-0.8-0.6-1.4-0.6c-0.5,0-0.9,0.1-1.4,0.4c-0.4,0.3-0.7,0.6-0.9,1.1c-0.2,0.5-0.3,1.2-0.3,2.2v5.4 H173"></path> <path d="M196.2,59c-0.6,0.3-1.6,0.5-2.9,0.7c-0.7,0.1-1.2,0.2-1.5,0.3c-0.3,0.1-0.5,0.3-0.7,0.6c-0.2,0.2-0.2,0.5-0.2,0.8 c0,0.5,0.2,0.9,0.5,1.2c0.4,0.3,0.9,0.5,1.6,0.5c0.7,0,1.3-0.1,1.8-0.4c0.5-0.3,0.9-0.7,1.2-1.2c0.2-0.4,0.3-1,0.3-1.7V59 M196.3,62.9c-0.7,0.6-1.3,0.9-1.9,1.2c-0.6,0.2-1.2,0.3-1.9,0.3c-1.1,0-2-0.3-2.6-0.8c-0.6-0.6-0.9-1.3-0.9-2.1 c0-0.5,0.1-1,0.3-1.4c0.2-0.4,0.5-0.8,0.9-1c0.4-0.3,0.8-0.4,1.3-0.6c0.3-0.1,0.9-0.2,1.6-0.3c1.4-0.2,2.5-0.4,3.1-0.6 c0-0.2,0-0.4,0-0.5c0-0.7-0.2-1.2-0.5-1.5c-0.4-0.4-1.1-0.6-2-0.6c-0.8,0-1.4,0.1-1.8,0.4c-0.4,0.3-0.7,0.8-0.9,1.5l-1.7-0.2 c0.2-0.7,0.4-1.3,0.8-1.8c0.4-0.5,0.9-0.8,1.5-1c0.7-0.2,1.5-0.4,2.3-0.4c0.9,0,1.6,0.1,2.1,0.3c0.6,0.2,1,0.5,1.2,0.8 c0.3,0.3,0.4,0.7,0.5,1.2c0.1,0.3,0.1,0.8,0.1,1.6v2.3c0,1.6,0,2.7,0.1,3.1c0.1,0.4,0.2,0.8,0.4,1.2h-1.8 C196.5,63.8,196.4,63.4,196.3,62.9z"></path> <path d="M199.5,64.1l3.8-5.4l-3.5-5h2.2l1.6,2.4c0.3,0.5,0.5,0.8,0.7,1.2c0.3-0.4,0.5-0.8,0.8-1.1l1.7-2.4h2.1l-3.6,4.9l3.8,5.5 H207l-2.1-3.2l-0.6-0.9l-2.7,4.1H199.5"></path> <polygon points="154.9,73.2 154.9,88.4 160.1,88.4 149.7,103.7 139.2,88.4 144.4,88.4 144.4,73.2 "></polygon> <polygon points="154.9,73.2 154.9,88.4 160.1,88.4 149.7,103.7 139.2,88.4 144.4,88.4 144.4,73.2 "></polygon> </g> </svg> 