<?xml version="1.0" encoding="UTF-8"?> <!-- Generator: Adobe Illustrator 24.0.3, SVG Export Plug-In . SVG Version: 6.00 Build 0) --> <svg xmlns="http://www.w3.org/2000/svg" xmlns:xlink="http://www.w3.org/1999/xlink" id="Слой_1" x="0px" y="0px" viewBox="0 0 300 300" style="enable-background:new 0 0 300 300;" xml:space="preserve"> <g> <path d="M116.6,199.4c16.8,0,33.5,0,50.4,0c0,16.8,0,33.6,0,50.5c-16.8,0-33.5,0-50.4,0C116.6,233.1,116.6,216.4,116.6,199.4z"></path> <path d="M75.6,197.7c-2-3.9-3.9-7.6-5.9-11.5c0.5-0.4,1-0.7,1.5-1c23.3-13,46.6-25.9,69.9-38.9c0.9-0.5,1.6-0.7,2.6-0.1 c23.9,13.1,47.9,26.2,71.8,39.3c0.3,0.2,0.6,0.4,1,0.7c-1.9,3.8-3.9,7.5-5.9,11.5c-0.7-0.4-1.4-0.7-2-1 c-21.4-11.5-42.9-23-64.3-34.6c-1.3-0.7-2.2-0.7-3.5,0c-20.9,11.5-41.8,22.9-62.7,34.3C77.3,196.8,76.6,197.2,75.6,197.7z"></path> <path d="M169.3,82.9c8,0,14.5,6.5,14.5,14.5c0,7.9-6.5,14.4-14.5,14.4c-8,0-14.6-6.6-14.5-14.5C154.9,89.3,161.4,82.9,169.3,82.9z"></path> <path d="M230.3,179.2c-2,1.4-3.9,2.7-5.9,4.1c-15.8-22.9-31.5-45.7-47.3-68.6c2-1.4,3.9-2.7,5.9-4.1 C198.8,133.5,214.5,156.3,230.3,179.2z"></path> <path d="M83.1,126.8c-0.7-2.3-1.3-4.5-2-6.9c23.2-6.8,46.3-13.7,69.5-20.5c0.7,2.3,1.3,4.5,2,6.9C129.4,113.2,106.3,120,83.1,126.8 z"></path> <path d="M118.6,155.7c12.2-15.2,24.4-30.5,36.7-45.9c1.9,1.4,3.7,2.8,5.7,4.3c-0.5,0.6-0.9,1.2-1.3,1.7c-7.9,10-15.7,20-23.6,30 c-0.7,0.9-1.7,1.7-2.7,2.3c-4.3,2.4-8.6,4.8-12.9,7.2c-0.5,0.3-1.1,0.5-1.6,0.8C118.8,155.9,118.7,155.8,118.6,155.7z"></path> <path d="M153.1,87.6c-0.9,2.3-1.6,4.5-2.5,6.7C134.8,88.5,119,82.8,103.1,77c0.8-2.3,1.6-4.4,2.4-6.7 C121.4,76.1,137.1,81.8,153.1,87.6z"></path> <path d="M188.3,95.1c-0.7-2.4-1.4-4.6-2.1-6.9c13.8-4.2,27.6-8.3,41.5-12.6c0.7,2.3,1.4,4.4,2.1,6.8 C216.1,86.7,202.3,90.8,188.3,95.1z"></path> <path d="M185.7,107.2c0.9-2.4,1.6-4.5,2.5-6.7c13.7,4.9,27.2,9.8,40.8,14.7c-0.8,2.3-1.6,4.4-2.4,6.7 C212.9,117,199.4,112.2,185.7,107.2z"></path> <path d="M165.8,116.1c2.4,0,4.6,0,7,0c0,14.5,0,28.8,0,43.6c-2.2-1.1-4.4-2.1-6.5-3.2c-0.3-0.1-0.5-0.7-0.5-1.1 C165.8,142.3,165.8,129.3,165.8,116.1z"></path> <path d="M177.7,80.4c5.9-7.8,11.6-15.3,17.5-23c1.9,1.4,3.7,2.8,5.7,4.3c-5.8,7.7-11.6,15.3-17.5,23 C181.4,83.3,179.6,81.9,177.7,80.4z"></path> <path d="M162.1,79.7c-2,1.4-3.9,2.6-5.9,4c-5.4-8-10.7-16-16.1-24c2-1.3,3.9-2.6,5.9-4C151.4,63.7,156.7,71.6,162.1,79.7z"></path> <path d="M166,49.9c2.2,0,4.4,0,6.8,0c0,9.6,0,19,0,28.7c-2.2,0-4.4,0-6.8,0C166,69.1,166,59.6,166,49.9z"></path> </g> </svg> 