<?xml version="1.0" encoding="UTF-8"?> <!-- Generator: Adobe Illustrator 24.0.3, SVG Export Plug-In . SVG Version: 6.00 Build 0) --> <svg xmlns="http://www.w3.org/2000/svg" xmlns:xlink="http://www.w3.org/1999/xlink" id="Слой_1" x="0px" y="0px" viewBox="0 0 300 300" style="enable-background:new 0 0 300 300;" xml:space="preserve"> <style type="text/css"> .st0{fill-rule:evenodd;clip-rule:evenodd;} </style> <g> <rect x="86.5" y="103.1" class="st0" width="11.9" height="94"></rect> <rect x="201.5" y="103.1" class="st0" width="11.9" height="94"></rect> <polygon class="st0" points="62.7,139.1 50,139.1 50,161.2 62.7,161.2 62.7,172.4 83.7,150.1 62.7,127.9 "></polygon> <polygon class="st0" points="237.3,139.1 237.3,127.9 216.3,150.1 237.3,172.4 237.3,161.2 250,161.2 250,139.1 "></polygon> <path class="st0" d="M102.9,185.6c0,3.2,1.3,6,3.4,8.1l36.8-43.8l-36.6-43.6c-2.2,2.1-3.6,5.1-3.6,8.4V185.6z"></path> <path class="st0" d="M197,114.7c0-3.3-1.4-6.2-3.6-8.3l-36.5,43.5l36.8,43.8c2.1-2.1,3.3-4.9,3.3-8.1V114.7z"></path> <rect x="75.1" y="146.5" transform="matrix(0.6427 -0.7661 0.7661 0.6427 -61.2389 168.4726)" class="st0" width="149.8" height="6.8"></rect> <polygon class="st0" points="182.4,103.1 117.6,103.1 150,141.7 "></polygon> <polygon class="st0" points="148.8,143.1 104.5,90.3 99.2,94.7 144.3,148.4 "></polygon> <polygon class="st0" points="151.2,156.6 195.5,209.5 200.8,205.1 155.7,151.3 "></polygon> <polygon class="st0" points="117.2,197.2 182.8,197.2 150,158.1 "></polygon> </g> </svg> 