<?xml version="1.0" encoding="UTF-8"?> <!-- Generator: Adobe Illustrator 24.0.3, SVG Export Plug-In . SVG Version: 6.00 Build 0) --> <svg xmlns="http://www.w3.org/2000/svg" xmlns:xlink="http://www.w3.org/1999/xlink" id="Слой_1" x="0px" y="0px" viewBox="0 0 300 300" style="enable-background:new 0 0 300 300;" xml:space="preserve"> <g> <path d="M155.8,161.2c4.2,2,6.6,5.3,8.5,9.2c2.9-6.3,7.2-10.5,14.1-10.5c7-0.1,11.4,4.1,14.2,10.1c6.4-13.2,22.3-13.7,28.5-0.7 c0-0.6,0-0.9,0-1.2c-0.3-7.9-1.6-15.7-4.6-23c-10.5-25.4-29.3-40.6-56.5-45.2c-3.9-0.6-3.9-0.6-4.2-4.4c0-0.5-0.5-1.3-0.8-1.3 c-3.5-0.1-7-0.1-10.6-0.1c0,1.4-0.1,2.4,0,3.5c0.1,1.4-0.4,1.8-1.8,2c-2.3,0.2-4.5,0.5-6.7,1c-30.2,7.4-48.9,26.3-55.7,56.6 c-0.9,3.8-1,7.8-1.4,11.7c7.1-13,22-11.9,28.7,1.4c3-5.9,7-10.4,14.2-10.5c7.1,0,11.1,4.5,14.2,10.5c1.8-4.1,4.3-7.4,8.5-9.4 c0,0.8,0.1,1.3,0.1,1.8c0,20.8,0,41.6,0,62.4c0,1.5-0.2,2.9-0.5,4.4c-1,4.8-4.2,8.2-8,8.8c-4.8,0.7-9-2.6-10.3-8.2 c-0.4-1.6-0.5-3.3-0.8-5.1c-3.9,0-7.8,0-12.2,0c0.5,2.9,0.7,5.8,1.4,8.5c2.6,9.7,10.8,16.2,20.3,16.2c9.4,0,17.4-6.1,20.1-15.9 c0.9-3.3,1.2-6.8,1.3-10.3c0.1-19.9,0.1-39.9,0.1-59.8C155.8,163.1,155.8,162.4,155.8,161.2z M164.1,74c-2.6,1.7-5.7,3.7-8.8,5.7 c-2,1.3-3.1,3.1-2.7,5.5c0.5,3,3.1,5,6,4.7c2.9-0.2,4.9-2.4,5-5.5C163.7,80.9,163.9,77.2,164.1,74z M185.7,86.7 c-2.8,1.8-5.9,3.8-9,5.8c-2.5,1.6-3.3,4.2-2.2,6.7c1,2.3,3.6,3.8,6,3.4c2.8-0.5,4.5-2.5,4.6-5.4C185.4,93.6,185.5,89.9,185.7,86.7z M200.8,64.4c-2.8,1.8-5.9,3.8-9,5.8c-2.4,1.6-3.2,4.1-2.2,6.6c0.9,2.4,3.5,3.9,5.9,3.5c2.7-0.4,4.6-2.3,4.7-5.1 C200.5,71.4,200.7,67.7,200.8,64.4z M133.6,80.3c-2.7,1.8-5.8,3.7-8.8,5.7c-2.3,1.5-3.2,3.6-2.6,5.9c0.7,2.7,3.1,4.5,5.7,4.3 c2.9-0.2,4.9-2.3,5.1-5.4C133.3,87.3,133.5,83.6,133.6,80.3z M215.4,86.7c-2.6,1.7-5.7,3.7-8.8,5.8c-2.5,1.6-3.4,4.1-2.4,6.7 c0.9,2.4,3.6,4,6.1,3.5c2.8-0.5,4.5-2.5,4.6-5.6C215,93.4,215.2,89.8,215.4,86.7z M180,49.9c-2.7,1.8-5.8,3.7-8.8,5.7 c-2.2,1.4-3.1,3.5-2.6,5.7c0.6,2.8,3.1,4.7,5.8,4.5c2.9-0.2,5-2.2,5.2-5.3C179.7,56.8,179.9,53.2,180,49.9z"></path> <path d="M155.8,161.2c0,1.1,0,1.9,0,2.7c0,19.9,0.1,39.9-0.1,59.8c0,3.4-0.4,7-1.3,10.3c-2.6,9.7-10.7,15.9-20.1,15.9 c-9.5,0-17.7-6.5-20.3-16.2c-0.7-2.7-1-5.6-1.4-8.5c4.3,0,8.2,0,12.2,0c0.3,1.8,0.4,3.5,0.8,5.1c1.3,5.7,5.5,8.9,10.3,8.2 c3.7-0.5,6.9-4,8-8.8c0.3-1.4,0.5-2.9,0.5-4.4c0-20.8,0-41.6,0-62.4c0-0.5-0.1-1-0.1-1.8c-4.2,2-6.7,5.3-8.5,9.4 c-3-6-7.1-10.5-14.2-10.5c-7.1,0-11.1,4.6-14.2,10.5C100.9,157.1,86,156,78.8,169c0.5-3.9,0.6-7.9,1.4-11.7 c6.9-30.4,25.5-49.3,55.7-56.6c2.2-0.5,4.5-0.8,6.7-1c1.4-0.1,1.9-0.6,1.8-2c-0.1-1.1,0-2.1,0-3.5c3.6,0,7.1,0,10.6,0.1 c0.3,0,0.7,0.8,0.8,1.3c0.3,3.8,0.3,3.8,4.2,4.4c27.2,4.6,46,19.7,56.5,45.2c3,7.3,4.4,15.1,4.6,23c0,0.3,0,0.6,0,1.2 c-6.2-13-22.1-12.5-28.5,0.7c-2.9-6.1-7.2-10.2-14.2-10.1c-7,0.1-11.2,4.2-14.1,10.5C162.4,166.5,160,163.3,155.8,161.2z"></path> <path d="M164.1,74c-0.2,3.3-0.3,6.9-0.5,10.5c-0.2,3.1-2.1,5.2-5,5.5c-2.9,0.2-5.5-1.8-6-4.7c-0.4-2.4,0.6-4.2,2.7-5.5 C158.4,77.7,161.5,75.7,164.1,74z"></path> <path d="M185.7,86.7c-0.2,3.1-0.3,6.8-0.5,10.5c-0.2,2.9-1.9,4.9-4.6,5.4c-2.4,0.4-5-1-6-3.4c-1.1-2.6-0.3-5.1,2.2-6.7 C179.8,90.5,182.9,88.5,185.7,86.7z"></path> <path d="M200.8,64.4c-0.2,3.3-0.3,7.1-0.5,10.8c-0.2,2.8-2.1,4.7-4.7,5.1c-2.4,0.4-5-1.2-5.9-3.5c-1-2.5-0.2-5,2.2-6.6 C194.9,68.1,198,66.2,200.8,64.4z"></path> <path d="M133.6,80.3c-0.2,3.3-0.3,6.9-0.5,10.6c-0.2,3.1-2.2,5.1-5.1,5.4c-2.6,0.2-5.1-1.6-5.7-4.3c-0.6-2.3,0.3-4.5,2.6-5.9 C127.8,84,130.9,82.1,133.6,80.3z"></path> <path d="M215.4,86.7c-0.2,3.1-0.4,6.7-0.6,10.3c-0.1,3.1-1.7,5.1-4.6,5.6c-2.5,0.5-5.2-1.1-6.1-3.5c-1-2.6-0.1-5,2.4-6.7 C209.6,90.4,212.7,88.4,215.4,86.7z"></path> <path d="M180,49.9c-0.2,3.3-0.3,7-0.5,10.6c-0.2,3.1-2.2,5.1-5.2,5.3c-2.7,0.2-5.2-1.7-5.8-4.5c-0.5-2.2,0.4-4.3,2.6-5.7 C174.3,53.6,177.3,51.6,180,49.9z"></path> </g> </svg> 