<?xml version="1.0" encoding="UTF-8"?> <!-- Generator: Adobe Illustrator 24.0.3, SVG Export Plug-In . SVG Version: 6.00 Build 0) --> <svg xmlns="http://www.w3.org/2000/svg" xmlns:xlink="http://www.w3.org/1999/xlink" id="Слой_1" x="0px" y="0px" viewBox="0 0 300 300" style="enable-background:new 0 0 300 300;" xml:space="preserve"> <style type="text/css"> .st0{fill-rule:evenodd;clip-rule:evenodd;} </style> <g> <path class="st0" d="M68.9,231.8c0,2.6,0.2,6.9-0.1,9.2c0,0.1,0,0.3,0,0.4v8c0.1,0.2,0.2,0.4,0.4,0.4h79.6v-12.8H81.1v-85.7H68.9 V231.8"></path> <path class="st0" d="M231,231.8c0,2.6-0.2,6.9,0.1,9.2c0,0.1,0,0.3,0,0.4v8c-0.1,0.2-0.2,0.4-0.4,0.4h-77.2v-12.8h65.3v-85.7H231 V231.8"></path> <path class="st0" d="M68.9,146h11.8c0.3,0,0.4-0.1,0.4-0.4V63h67.6V50l-79.8-0.1V146"></path> <path class="st0" d="M153.9,50V63h65.1v82.7c0,0.3,0.1,0.4,0.4,0.4h11.8V49.9L153.9,50"></path> <path class="st0" d="M159.8,196c-2-1.2-4.9-2.9-6.6-4.5l-1.4-1.4c-0.7-0.9-1.4-1.6-2.1-2.7c-0.9-1.4-1.8-3.3-3-4.5 c-0.3-0.3-0.6-0.7-1.1-0.7c-1.8-0.1-5.9,2.9-7.3,4.1c-0.2,0.2-0.2,0.2-0.5,0.4l-1.5,1.3c-0.4,0.3-0.6,0.6-1,1l-2,1.8 c-0.3,0.3-0.5,0.6-1,0.9c-1.9,1-1.1-1-0.9-2c0.6-3.6,2.2-11.4,3-14.2c0.3-0.9,1.5-0.8,2.7-0.8c4.1-0.2,4.2,0.1,7-2.2 c0.9-0.7,1.6-1.5,2.3-2.4c5-6.8,3.6-14.8,6.5-21.4c0.5-1.1,1.1-1.9,1.8-2.7c0.5-0.6,1.7-2,1.7-3c0-1-0.7-1.6-1.5-1.8 c-0.4-0.1-0.9-0.2-1.2-0.3c-0.3-0.2-0.7-0.5-0.7-1c0-1.2,1.7-1.4,1.7-2.5c0-1.1-1.2-1.7-2.2-1.7c-3.4,0-6,1.8-7.7,1.8 c-1-1.5-2.7-4.4-4.7-4.4c-4.1,0-3.4,5-9,2.7c-0.8-0.3-2.2-1.3-3.1-1.3c-1.3,0-2,1.1-2,2.4c0,2.2,1.3,3.4,1.3,5.6 c0,1.9-1.6,6.7-2.2,8.1c-2,4.8-1.9,6.8-1.9,12c0,3,1.4,6.1,3.2,7.9l2.3,2.1c1.6,1.3,1.5,1.1,0.3,5.3c-0.4,1.3-0.8,2.4-1.1,3.7 c-0.3,1.2-0.7,2.5-1,3.8c-1,4.7-1.2,12.8-2,17.4c-0.2,0.9-0.8,3.3-1.7,3.3c-1.2,0-7.1-9.9-8.2-11.9c-2.6-4.8-3.3-4-0.3-6.9 c0.4-0.5,0.8-0.7,1.2-1.1c0.4-0.4,0.7-0.8,1.1-1.2c3.7-3.8,2.3-10.6,1.4-15.2c-0.7-3.3-1.5-4.5-1.5-8.2c0-1.6,0.6-3.7,1.1-4.9 c0.3-0.7,0.5-1.6,1-2c1-0.8,1.5-0.4,1.5-2c0-0.9-1-1.7-1.8-1.8c-2.6-0.5-6.7,1.1-8.5,2.4c-1,0.7-6.8,6-7.6,7.3 c-0.3-0.1-0.5-0.2-0.9-0.3c-0.3-0.1-0.5-0.2-0.8-0.4c-0.6-0.3-1-0.6-1.6-0.9c-1-0.6-2.1-1.3-3.2-1.8c-0.6-0.2-1.1-0.5-1.7-0.7 c-2.5-0.8-7.7-1.2-10.5-0.5l-0.1,2c0,0.4,0.7,0.7,1,1c0.8,0.6,1.3,1.4,1.9,2.1c0.4,0.5,0.5,0.7,0.8,1.3l2.2,3.9 c3.1,6.2,0.8,10.2,2.9,15.7c1.4,3.7,4.5,6.7,8.1,8.2c0.8,0.3,2.2,0.7,3.3,0.7c3.9,0,3.7-0.6,5.4,2.8c0.5,0.9,0.9,2,0.9,3.3 c-3.5,0.8-8.8-2.3-16,3.4c-0.4,0.3-0.7,0.6-1.1,1c-0.4,0.4-0.7,0.6-1.2,1c-0.7,0.7-1.4,1.4-2.1,2.1c-2,2-3.5,3.2-5.8,4.8 c-1,0.8-1.5,1.6-0.2,2.5c2,1.5,4.9,1.3,7.3,2c1.5,0.4,3.2,0.4,4.7,0.1c2.3-0.3,4.8-0.9,6.4-1.9c0.9-0.6,1.7-1.1,2.5-1.7 c1.1-1,2.9-2.5,4.2-0.8c0.3,0.4,0.5,0.9,0.7,1.4c1.4,5.2-0.6,10.7,5.8,15.6c2.5,1.9,4.1,1.5,6.2,2.4c0.4,1.7-0.4,3.6-0.4,5.1h4.7 c0-1.3,0.1-2.9,0.3-4.1c0.2-0.9,1.3-1.1,2.7-1.8c2.9-1.4,5.7-3.3,7.5-6c1.8-2.6,3-7.1,3-10.5c0-1.7,0.1-3.8-0.1-5.4 c-0.1-0.8,0.1-0.8,0.1-1.4c0.7,0,0.9-0.1,1.7-0.1c3.3,0,8.7-0.4,12-0.9c2-0.3,4.1-0.8,5.9-1.4c0.9-0.3,1.8-0.6,2.6-1.1 C165.6,199.3,163.1,198.1,159.8,196z M98.4,207.3c-2,0.9-6.1,0-3.6-1.8l4.3-3c1.6-1,5.2-3,7.4-1.8 C106.5,202.3,100,206.6,98.4,207.3z M130.8,139.9c2-0.2,4.2,0.8,5.7-0.6c1.4-1.3,2.6-2.6,4.2-1.8c1.7,0.9,2.4,3.2,3.2,3.5 c0.6,0.2,4.6-0.7,5.7-0.7c0.4,0.5,0.6,1,0.5,1.9c0,0.9-0.4,1.1-1.1,1.4c-1.1,0.6-2.2,1.1-3.2,1.6c-2.8,1.4-3.7,4.6-5.7,3.8 c-0.8-0.3-1.5-2-1.9-3c-0.4-0.9-0.8-3.1-1.5-3.3c-1.1-0.3-3.5,2.2-4.2,3c-0.4,0.4-0.9,0.7-1.7,0.4 C130.4,145.6,130.6,140.4,130.8,139.9z"></path> <path class="st0" d="M208.9,103.2c-1.5-1.5-1.7-1.4-0.3-3.5c1.6-2.5,2.1-3.6,1.9-6.8c-0.2-2.6-2-7.5-4.4-7.5c-2.3,0-1.5,1-3.4,3.4 c-1,1.4-1.7,2.3-3.2,3.3c-3.9,2.7-4.1,3.2-10.4,3.2c-1.3,0-2.4,0-3.7-0.1c-0.6,0-2.6-0.6-3-0.8l1.3-5.5c-0.7-0.2-1.7-0.5-2.4-0.8 l-7-2.4l-1.3,3.8c-0.2,0.5-0.4,0.7-0.4,1.3c-0.8-0.2-3.2-0.5-3.7-0.8c0.1-0.6,0.3-1.2,0.4-1.8c0.1-0.6,0.4-1.2,0.4-2 c-0.5-0.1-2.7-1.9-3.3-2.3c-4-3-7.1-3.8-12.4-4.7c-1.6-0.3-3.3-0.5-4.9-0.7l-14.8-1c-0.7,0-0.7-0.1-1.3-0.1 c-0.3,0.6-0.6,1.1-0.9,1.7c-0.8,1.6-1.7,4.6-2.5,5.8c-0.9,0-1.7,0.1-2.5,0.2c-1,0.1-1.7,0.1-2.7,0.2c-4.6,0.6-4.9,0.4-9.6,1.7 c-5.1,1.3-7.6,2.5-12,5.1c-5.7,3.4-4,1.7-9.1,1.7c-1.6,0-3.1,0.6-3.1,2.4c0,1.6,1.8,2.5,1.8,4.6c0,2.6-2,2.6-2,4.3 c0,1.4,1.7,1.7,3,1.7c3.2,0,1.2-0.7,5,1.4c3.1,1.7,14,6.6,16.5,7.2c0.9,0.2,1.8,0.4,2.7,0.7c2.3,0.6,3.1,1,5.1,1.7 c3.9,1.3,3.5,0.5,7.4,2.8c1,0.6,3.9,2.8,4.8,3.6c0.4,0.3,0.6,0.5,0.9,0.8c0.8,0.8,3.1,2.8,4.2,2.4c1.4-0.6,2-2.8,2.2-4.6 c0.5-3.8,0.4-5,4.8-5.2c0.9-0.1,2.2-0.2,3.1-0.3c5-0.1,7.3-0.4,12-1.6c5.5-1.4,6.2-1.9,11.7,0.8c0.4,0.2,0.6,0.3,1.1,0.5 c7,2.8,5.3-3,7.2-6.5c1.7-3.2,9.6-3.2,13.7-1.6c3.1,1.2,4.8,2.9,6.7,5.3c0.3,0.4,0.4,0.6,0.7,1c0.5,0.6,1,1.4,1.3,2.1 c0.2,0.4,0.4,0.7,0.6,1.1c1.7,2.7,5.4-2.5,5.4-8C210.7,107,210.9,105.2,208.9,103.2z M117.3,100.1c-0.3-1.9,1-3.3,2.6-3.6 c1.8-0.3,3.2,1,3.4,2.5C124.1,103.1,117.9,104.1,117.3,100.1z"></path> <path class="st0" d="M213.2,154.3c-0.5-0.3-0.7-0.7-1.2-1c-1-0.7-2.9-2.6-2.8-3.9c0.3-3.2,6.4-6.1,3-8.1c-1.4-0.8-4.8-1.4-6.2-0.1 c-1.2,1-0.3,2.9-1,5.8c-0.6,2.3-1.7,1.7-5.2,1.7c-2.1,0-1.2-1.2-1.7-5.2c-0.8-7.2-4.8-7.3-9.4-8.3c-1-0.2-4.5-1.3-4.5,0.7 c0,1,0.1,1.5,1.1,1.8c4,1.1,5,2,6.5,5.9c0.1,0.3,2.3,5.3,0.2,4.6c-1-0.3-2.9-5-5-6.8c-1.1-0.9-2.9-1.8-4.3-2.4 c-2.1-0.8-3.9-1.4-6.3-1.4c-2,0,0.1,3.3-2.2,3.3c-1.1,0-2.3-1.7-6.1-1.7c-1.3,0-2.5,0.6-2.6,1.8c-0.3,3.5-0.1,2.1-4.9,4.1 c-0.5,0.2-1.1,0.5-1.4,0.8c-0.8,0.6-0.9,1.2-0.9,2.1c0,1.1,1,0.9,1,1.7c0,2.2-4.6,1.1-4.6,4.3c0,0.9,0.1,1.2,0.7,1.5 c0.8,0.3,1,0.3,1.5,0.9c-0.2,1.9-3.1,2.6-3.1,4.7c0,1.3,0,1.8,1.4,2.1l2.3,0.6c-0.1,0.6-0.7,1.4-1,1.9c-0.5,1.1-0.9,3.7,0.2,4.7 c1.8,1.6,2.4,0.2,4-1.2c0.4-0.3,0.7-0.7,1.1-1.1c0.6-0.6,1.8-1.7,2.5-2.1c0.9-0.4,3.2-1.1,2.1,0.7c-0.3,0.5-0.6,0.6-1,1 c-1.6,1.5-6.3,3.9-6.3,6.4c0,0.8,0,0.7,0.4,1.3c1.1,0,2.9-0.8,2.9,1c0,0.8-3.7,3-3.7,5.5c0,1.5,3.5,0.7,2.9,2.5 c-0.6,1.8-2,1.8-2,4.3c0,1.4,3,0.8,3.9,1.1c1.3,0.4,0.2,2.4,0.2,4.3c0,1,0.6,1.6,1.4,1.6c1.5,0,2.6-1.4,3.5-2.1 c0.3,0.6,0.3,1.1,0.4,1.9c0.1,0.7,0,1.6,0,2.3c0,2.5,0.4,1.7,2.1,2.6c0,0.9,0.1,4.6,0.4,5.1c0.8,1.1,2.6,0.9,2.6,3 c0,0.6-0.4,1-0.4,2c0,1.5,2.4,1.6,2.4,2.6c0,1.7-2,3.2,0.9,4.9c3.5,2.1,0.9,3.4,1.6,5.7c0.2,0.5,0.4,0.8,1,0.9c0.9,0.1,1,0,1.5,0.6 c1.2,1.2,0.1,2.2,0.7,3.1c0.4,0.5,0.8,0.1,1.5,0.5c0.5,0.2,0.8,0.6,0.9,1.2c0.2,1.4,0.3,2.1,1,3.1c0.6,0.7,2,1.4,3.1,1.4 c1.5,0,2.8-1.1,3.6-1.9c0.8-0.8,1.4-2.4,2.2-3.4c0.4-0.5,0.8-1,1.3-1.5c0.7-0.6,0.8-0.6,0.8-1.9c0-2.3-0.6-6,0.5-8 c1-1.8,4.8-2.3,5-4.6l-0.2-2.9c-0.2-1.6,1.7-2.5,2.4-3.8c0.7-1.5-0.5-3.4,1-4.6c0.6-0.4,1-0.4,1.4-0.9c-0.2-0.8-0.5-0.7-0.9-1.3 c0.4-0.5,0.7-0.7,1.1-1.1c0.4-0.4,0.8-0.7,1.3-1.1c0.7-0.5,1.8-1.7,1.8-2.8c0-1.4-1.4-1.8-1.4-3.1c0-1.1,1.4-1.2,1.4-2.6 c0-2.9-0.6-2.2,1.7-3.8c0.8-0.6,0.6-1,0.9-2c0.3-1,0.6-1.8,0.6-2.9c0-1.1-1.8-1.6-1.8-2.7c0-1.7,0.8-3.1,0.8-4.8 c0-3.3-5.5-1.2-5.5-4.6c0-1.6,2.6-3.8,2.6-5.4c0-0.8-1.4-2.1-2-2.7c-0.8-0.9-1.5-1.8-1.3-3.2c1-5.6,4.3,2.7,7.6,2.7 c0.8,0,1.1-0.3,1.4-0.8C215.5,156.9,214.6,155.4,213.2,154.3z M206,189.3c-0.9,2.4-4.6,1.1-3.7-1.4 C203.1,185.6,206.9,186.8,206,189.3z M181.5,188.8c0.7,3.2-3.9,3.8-4.5,1.1C176.2,186.8,180.9,186.1,181.5,188.8z M177.5,179.5 c3.2-1.2,4.4,4.2,1.5,5.1C175.9,185.5,174.2,180.7,177.5,179.5z M177.6,195.3c0.8-2.9,5.4-1.6,4.5,1.3 C181.1,199.6,176.8,198.2,177.6,195.3z M184.9,202.3c0.8,3-3.5,4-4.3,1.3C179.8,200.6,184.2,199.6,184.9,202.3z M190.9,180.1 c3.7-1,4.2,3.3,1.8,4C189.3,185.2,188.2,180.8,190.9,180.1z M184.9,188.4c-0.4-3.2,4.3-3.5,4.6-0.7 C189.9,190.9,185.3,191.2,184.9,188.4z M195.1,191.2c0.2,1.3-0.7,2.3-1.7,2.5c-1.2,0.2-2.2-0.7-2.4-1.7 C190.5,189.1,194.7,188.5,195.1,191.2z M194.8,173.2c1.5-0.4,2.7,0.7,3,1.8c0.4,1.5-0.6,2.8-1.8,3.2 C192.7,179,191.3,174.1,194.8,173.2z M194.1,170.4c-3.9,0.4-4.9-4.5-1.5-5.1C196.6,164.6,197.2,170.1,194.1,170.4z M190.8,173.3 c0.4,1.5-0.6,2.9-1.8,3.2c-3.3,0.8-4.6-4.1-1.2-5C189.2,171.1,190.5,172.1,190.8,173.3z M187.8,180.4c0.4,1.6-0.7,2.9-1.8,3.2 c-3.3,0.9-4.6-4.3-1.2-5C186.2,178.4,187.5,179.3,187.8,180.4z M185,195.3c0.9-2.9,5.3-1.4,4.4,1.4 C188.5,199.6,184,198.3,185,195.3z M191.4,202.9c0.1,2.9-4,3.2-4.3,0.3C186.9,200.1,191.4,200,191.4,202.9z M194.7,210 c0.3,3-4.2,3.2-4.5,0.5C189.9,207.5,194.4,207.2,194.7,210z M196.6,198.2c0.1,1.2-0.7,2.1-1.8,2.2c-1.1,0.1-2-0.7-2.1-1.6 C192.3,196,196.4,195.6,196.6,198.2z M195.2,186c-0.3-0.6-0.3-1.4,0-2c0.3-0.6,0.6-0.8,1.5-1c4.1-0.7,4.1,3.7,1.6,4.3 C196.8,187.7,195.6,186.9,195.2,186z M201.2,193.1c0.4,2.7-3.5,3.1-3.9,0.8C196.8,191.2,200.8,190.8,201.2,193.1z M200.5,177.2 c2.9-1,4.5,3.4,1.3,4.3C199.1,182.4,197,178.5,200.5,177.2z M203.9,169.7c0.4,1.5-0.4,2.8-1.6,3.2c-3.2,1-4.9-3.7-1.7-4.9 C202.1,167.5,203.5,168.5,203.9,169.7z M193.6,152.7c0.5-0.3,2.3-0.6,3-0.7c1.7-0.2,5.7-0.7,6.3,0.8c0.4,0.9,0.1,2.3-0.5,2.8 c-0.5,0.6-1.4,1.4-2.4,0.8c-0.9-0.6-0.9-1-2.4-1.3c-1.1-0.2-2.3-0.1-3.4-0.3C192.5,154.6,193.3,152.9,193.6,152.7z M190.6,157.3 c2.4-0.5,4.6,1.2,5.7,1.4c0.5,0.1,1.6,0.2,2,0.4c1,0.5,0.6,2.9,0.1,3.7c-0.9,1.4-2.2-0.1-3.2-0.6c-2.8-1.5-3.7,0.9-8.5-0.5 C184.2,160.9,188.8,157.6,190.6,157.3z M184.9,163.5c3.6-0.6,4.5,5.2,0.8,5.6C181.7,169.5,181.3,164.1,184.9,163.5z M181.7,177 c-3.2,1-4.8-3.7-1.6-4.8C183.4,171,184.9,176,181.7,177z M177,165.2c1.5-0.3,2.8,0.8,3,2c0.3,1.6-0.8,2.8-2.1,3 C174.7,170.8,173.5,166,177,165.2z M172.5,173.3c1.6-0.5,2.9,0.5,3.3,1.8c0.4,1.5-0.5,2.8-1.7,3.1 C170.7,179.2,169.3,174.3,172.5,173.3z M170.8,181.8c2.6-0.6,3.1,3.4,0.8,3.9C169.1,186.2,168.1,182.5,170.8,181.8z M170.3,189.9 c0.6-2.2,4.5-1.5,3.8,1.1C173.5,193.5,169.5,192.6,170.3,189.9z M171.8,197.4c-0.4-2.3,3-2.7,3.3-0.6 C175.5,199.1,172.1,199.4,171.8,197.4z M174,203.6c-0.3-1.3,0.5-2.2,1.5-2.4c1.1-0.3,2.1,0.5,2.4,1.4 C178.5,205.3,174.5,206,174,203.6z M176.7,209.2c-0.3-2.4,3.2-2.7,3.5-0.5C180.5,211.1,176.9,211.3,176.7,209.2z M178.8,215.6 c-0.6-2.4,3-2.9,3.4-0.9C182.8,217.2,179.3,217.6,178.8,215.6z M181.6,221.4c-0.6-1.9,2.1-2.4,2.6-0.9 C184.7,222.3,182,222.8,181.6,221.4z M183.5,209.3c0.3-1.1,1.4-1.8,2.7-1.5c1,0.2,2,1.4,1.6,2.8C187,213.4,182.7,212.2,183.5,209.3 z M188.4,215.4c0.6,2.6-3.4,3.2-3.8,0.7C184.2,213.4,187.9,213,188.4,215.4z M184.8,224.9c1-1.8,3.3-0.5,2.5,1.3 C186.5,228.1,183.8,226.7,184.8,224.9z M187.3,230.5c-0.4-1.8,2.3-2.2,2.6-0.6C190.3,231.8,187.6,232.1,187.3,230.5z M190.2,221.2 c-0.6,1.9-3.7,1.2-3.1-1C187.6,218.3,190.9,219.1,190.2,221.2z M190.6,227.4c-0.4-1.7,2.2-2.3,2.6-0.8 C193.6,228.4,190.9,228.8,190.6,227.4z M194.7,222.8c-0.6,1.9-3.4,1.1-2.8-0.9C192.4,220.2,195.2,221,194.7,222.8z M194.7,216.8 c-0.7,1.9-3.6,0.8-2.8-1.1C192.6,214.1,195.4,214.8,194.7,216.8z M192.8,204.8c-0.5-2.8,3.5-3.2,4-0.9 C197.4,206.7,193.2,207.2,192.8,204.8z M199.4,213c-0.7,2-3.9,1.1-3.2-1.1C196.9,209.8,200.2,210.8,199.4,213z M201.4,206.9 c-0.9,1.9-3.7,0.6-2.8-1.3C199.5,203.7,202.3,205,201.4,206.9z M202.6,201.4c-0.8,2-4.1,1.1-3.3-1.2 C200,197.9,203.5,199.1,202.6,201.4z M202.9,195.9c-0.7-2.4,2.7-3,3.2-1C206.7,197.1,203.4,197.9,202.9,195.9z M209.9,181.8 c0.3,1.3-0.8,2.3-2,2.4c-2.9,0.2-4-3.3-0.6-4.1C208.5,179.8,209.7,180.8,209.9,181.8z M206.3,172.6c2.8-0.8,4,3.3,1.3,4.2 C204.8,177.7,203.4,173.4,206.3,172.6z"></path> </g> </svg> 