<?xml version="1.0" encoding="UTF-8"?> <!-- Generator: Adobe Illustrator 24.0.3, SVG Export Plug-In . SVG Version: 6.00 Build 0) --> <svg xmlns="http://www.w3.org/2000/svg" xmlns:xlink="http://www.w3.org/1999/xlink" id="Слой_1" x="0px" y="0px" viewBox="0 0 300 300" style="enable-background:new 0 0 300 300;" xml:space="preserve"> <g> <path d="M150,65.5c-45.9,0-83.2,37.9-83.2,84.4c0,46.5,37.3,84.4,83.2,84.4s83.2-37.9,83.2-84.4C233.2,103.4,195.9,65.5,150,65.5z M150,228.9c-42.9,0-77.8-35.5-77.8-79c0-43.6,34.9-79,77.8-79s77.8,35.5,77.8,79C227.8,193.5,192.9,228.9,150,228.9z"></path> <path d="M150,52.6c-52.9,0-95.9,43.6-95.9,97.3c0,53.6,43,97.3,95.9,97.3c52.9,0,95.9-43.6,95.9-97.3 C245.9,96.2,202.9,52.6,150,52.6z M150,241.8c-49.9,0-90.5-41.2-90.5-91.9S100.1,58,150,58s90.5,41.2,90.5,91.9 S199.9,241.8,150,241.8z"></path> <polygon points="164.8,140.9 135.2,140.9 135.2,107.5 120,107.5 120,192.3 135.2,192.3 135.2,155.2 164.8,155.2 164.8,192.3 180,192.3 180,107.5 164.8,107.5 "></polygon> <polygon points="145.8,126.8 154.2,126.8 154.2,104.9 157.3,104.9 150,93.1 142.7,104.9 145.8,104.9 "></polygon> <polygon points="154.2,172.9 145.8,172.9 145.8,194.8 142.7,194.8 150,206.6 157.3,194.8 154.2,194.8 "></polygon> <polygon points="192.3,146.2 181.7,146.2 181.7,153.6 192.3,153.6 192.3,157.2 204.1,149.9 192.3,142.6 "></polygon> <polygon points="107.7,142.6 95.9,149.9 107.7,157.2 107.7,153.6 118.3,153.6 118.3,146.2 107.7,146.2 "></polygon> </g> </svg> 