<?xml version="1.0" encoding="UTF-8"?> <!-- Generator: Adobe Illustrator 24.0.3, SVG Export Plug-In . SVG Version: 6.00 Build 0) --> <svg xmlns="http://www.w3.org/2000/svg" xmlns:xlink="http://www.w3.org/1999/xlink" id="Слой_1" x="0px" y="0px" viewBox="0 0 300 300" style="enable-background:new 0 0 300 300;" xml:space="preserve"> <g> <path d="M145.8,153.7c-14.1-2.4-23.6-10.8-30-22.9c-4.1-7.7-6.2-15.9-6.3-24.6c-0.1-18.5-0.1-36.9-0.1-55.4c0-0.3,0-0.6,0.1-1 c27,0,53.9,0,80.9,0c0,0.5,0.1,0.9,0.1,1.3c0,17.9,0.2,35.9-0.1,53.8c-0.2,14-4.6,26.6-14.3,37c-6.1,6.5-11.5,9.3-22.1,11.7 c0,0.5,0,1.1,0,1.6c0,27.7,0,55.5,0,83.2c0,1.2,0.3,1.8,1.6,2.1c11,2.9,22,5.8,33,8.8c0.3,0.1,0.5,0.2,0.8,0.4 c-26.2,0-52.4,0-78.6,0c0-0.1,0-0.1-0.1-0.2c0.5-0.2,1-0.3,1.5-0.5c10.8-2.9,21.6-5.8,32.5-8.6c1-0.3,1.3-0.6,1.3-1.7 c0-28,0-55.9,0-83.9C145.9,154.6,145.8,154.2,145.8,153.7z"></path> </g> </svg> 