<?xml version="1.0" encoding="UTF-8"?> <!-- Generator: Adobe Illustrator 24.0.3, SVG Export Plug-In . SVG Version: 6.00 Build 0) --> <svg xmlns="http://www.w3.org/2000/svg" xmlns:xlink="http://www.w3.org/1999/xlink" id="Слой_1" x="0px" y="0px" viewBox="0 0 300 300" style="enable-background:new 0 0 300 300;" xml:space="preserve"> <g> <path d="M169.7,91c-3.5,0-6.6,0-10.1,0c6.4-13.8,12.6-27.3,19-41.2c6.4,13.8,12.6,27.4,19,41.2c-3.5,0-6.6,0-10,0 c0,43.5,0,86.8,0,130.2c-6,0-11.8,0-17.9,0C169.7,178,169.7,134.7,169.7,91z"></path> <path d="M112.5,91.1c-3.4,0-6.6,0-10.1,0c6.4-13.8,12.6-27.3,19-41.2c6.4,13.8,12.6,27.3,19,41.2c-3.5,0-6.6,0-10,0 c0,43.5,0,86.8,0,130.2c-6.1,0-11.9,0-18,0C112.5,177.9,112.5,134.7,112.5,91.1z"></path> <path d="M220.4,249.9c-47,0-93.8,0-140.7,0c0-6.3,0-12.5,0-18.8c46.9,0,93.8,0,140.7,0C220.4,237.3,220.4,243.5,220.4,249.9z"></path> </g> </svg> 