<?xml version="1.0" encoding="UTF-8"?> <!-- Generator: Adobe Illustrator 24.0.3, SVG Export Plug-In . SVG Version: 6.00 Build 0) --> <svg xmlns="http://www.w3.org/2000/svg" xmlns:xlink="http://www.w3.org/1999/xlink" id="Слой_1" x="0px" y="0px" viewBox="0 0 300 300" style="enable-background:new 0 0 300 300;" xml:space="preserve"> <g> <path d="M188.8,160.1c-1.7-1.2-3.8-1.9-6.1-1.9h-70.6c-3.8,0-7.2,2-9.1,5c-1.3,1.7-2,3.8-2,6.2V239c0,3,1.3,5.7,3.3,7.6 c2,2.1,4.8,3.4,7.9,3.4h70.6c1.7,0,3.3-0.4,4.7-1.1c4.1-1.4,7.1-5.3,7.1-9.9v-69.7C194.5,165.3,192.2,161.8,188.8,160.1z"></path> <path d="M149,98.1l0.6,0.5l0.8-0.3l44.1-15.4l1-0.4V55.7h-93.5v7.4l0.6,0.5L149,98.1z M105.2,58.7h87.3v21.6l-42.3,14.8l-45-33.6 V58.7z"></path> <path d="M102.1,86.2V115l2-0.6l26.1-7.7L102.1,86.2z M105.2,92.2l18.2,13.3l-18.2,5.4V92.2z"></path> <path d="M195.6,133.3V102l-27.6,8.7l-2.9,0.9L195.6,133.3z M192.5,106.2v21.2l-20.6-14.7L192.5,106.2z"></path> <path d="M184.6,147.6l-37.1-27.9l-0.7-0.5l-0.8,0.3l-43,16l-1,0.4v14.5h81.6L184.6,147.6z M105.2,147.3V138l41.2-15.4l32.8,24.7 H105.2z"></path> <polygon points="230.2,86.7 226.9,76.5 149.3,103.1 77.9,49.7 71.2,58.7 136.7,107.4 69.8,130.3 73.2,141 147.4,115.4 223.1,171.8 229.5,163.1 159.9,111 "></polygon> </g> </svg> 