<?xml version="1.0" encoding="UTF-8"?> <!-- Generator: Adobe Illustrator 24.0.3, SVG Export Plug-In . SVG Version: 6.00 Build 0) --> <svg xmlns="http://www.w3.org/2000/svg" xmlns:xlink="http://www.w3.org/1999/xlink" id="Слой_1" x="0px" y="0px" viewBox="0 0 300 300" style="enable-background:new 0 0 300 300;" xml:space="preserve"> <style type="text/css"> .st0{fill-rule:evenodd;clip-rule:evenodd;} </style> <g> <path class="st0" d="M114.4,103.1h71.2c6.2,0,11.2,5.1,11.2,11.2v71.2c0,6.2-5.1,11.2-11.2,11.2h-71.2c-6.2,0-11.2-5.1-11.2-11.2 v-71.2C103.1,108.1,108.2,103.1,114.4,103.1z"></path> <path d="M114.4,103.1h71.2c6.2,0,11.2,5.1,11.2,11.2v71.2c0,6.2-5.1,11.2-11.2,11.2h-71.2c-6.2,0-11.2-5.1-11.2-11.2v-71.2 C103.1,108.1,108.2,103.1,114.4,103.1z"></path> <rect x="86.7" y="103.1" class="st0" width="11.2" height="93.6"></rect> <rect x="86.7" y="103.1" width="11.2" height="93.6"></rect> <rect x="202" y="103.1" class="st0" width="11.2" height="93.6"></rect> <rect x="202" y="103.1" width="11.2" height="93.6"></rect> <polygon class="st0" points="50,160.6 62.7,160.6 62.7,171.3 82.9,149.9 62.7,128.5 62.7,139.2 50,139.2 "></polygon> <polygon points="50,160.6 62.7,160.6 62.7,171.3 82.9,149.9 62.7,128.5 62.7,139.2 50,139.2 "></polygon> <polygon class="st0" points="250,160.6 237.3,160.6 237.3,171.3 217.1,149.9 237.3,128.5 237.3,139.2 250,139.2 "></polygon> <polygon points="250,160.6 237.3,160.6 237.3,171.3 217.1,149.9 237.3,128.5 237.3,139.2 250,139.2 "></polygon> </g> </svg> 