<?xml version="1.0" encoding="UTF-8"?> <!-- Generator: Adobe Illustrator 24.0.3, SVG Export Plug-In . SVG Version: 6.00 Build 0) --> <svg xmlns="http://www.w3.org/2000/svg" xmlns:xlink="http://www.w3.org/1999/xlink" id="Слой_1" x="0px" y="0px" viewBox="0 0 300 300" style="enable-background:new 0 0 300 300;" xml:space="preserve"> <style type="text/css"> .st0{fill-rule:evenodd;clip-rule:evenodd;} </style> <g> <path d="M173,188.7h-49.2c-3.9,0-7.1,3.2-7.1,7.1v47.1c0,3.9,3.2,7.1,7.1,7.1H173c3.9,0,7.1-3.2,7.1-7.1v-47.1 C180.1,191.9,176.9,188.7,173,188.7z"></path> <path d="M160.2,91.7l20.6,14.7V85.2l-1.3,0.4l-17.3,5.5L160.2,91.7z M178.8,88v14.3l-14-9.9L178.8,88z"></path> <path d="M150.3,82.6l29.9-10.4l0.7-0.2V53.8h-63.2v5l32.2,24L150.3,82.6z M119.7,55.9h59.1v14.6l-28.6,10l-30.4-22.7V55.9z"></path> <polygon points="204.3,74.8 202,67.9 149.5,85.9 101.2,49.8 96.7,55.8 141,88.8 95.7,104.3 98,111.5 148.2,94.2 199.5,132.3 203.8,126.5 156.7,91.2 "></polygon> <path d="M173,123.6h-49.2c-3.9,0-7.1,3.2-7.1,7.1v47.1c0,3.9,3.2,7.1,7.1,7.1H173c3.9,0,7.1-3.2,7.1-7.1v-47.1 C180.1,126.8,176.9,123.6,173,123.6z M178.1,177.9c0,2.8-2.3,5-5,5h-49.2c-2.8,0-5-2.3-5-5v-47.1c0-2.8,2.3-5,5-5H173 c2.8,0,5,2.3,5,5V177.9z"></path> <path d="M173.4,116l-25.1-18.9l-0.4-0.3l-0.5,0.2l-29.1,10.9l-0.7,0.3v9.8h55.2L173.4,116z M119.7,115.8v-6.3l27.9-10.4l22.2,16.7 H119.7z"></path> <path d="M136.6,88.3l-19-13.9v19.5l1.3-0.4l15.6-4.6L136.6,88.3z M119.7,91.2V78.5l12.3,9L119.7,91.2z"></path> <path class="st0" d="M153.7,141.5v4.3h-8.6l-0.8,4.3c0.5-0.3,1.1-0.5,1.6-0.7c0.6-0.2,1.2-0.2,1.8-0.2c2.3,0,4.3,0.9,5.9,2.6 c1.6,1.7,2.4,3.8,2.4,6.2c0,1.1-0.2,2.2-0.6,3.2c-0.4,1-0.9,1.9-1.7,2.8c-0.9,1-1.9,1.8-3,2.3c-1.1,0.5-2.4,0.8-3.7,0.8 c-2.4,0-4.4-0.8-6-2.3c-1.6-1.5-2.6-3.6-2.8-6h4.7c0.1,1.1,0.6,2,1.3,2.7c0.7,0.7,1.6,1.1,2.7,1.1c1.2,0,2.1-0.4,2.9-1.3 c0.8-0.9,1.1-1.9,1.1-3.2c0-1.3-0.4-2.3-1.2-3.1c-0.8-0.8-1.8-1.2-3-1.2c-0.8,0-1.4,0.2-2,0.5c-0.5,0.3-1,0.8-1.3,1.4l-4.2-0.9 l2.4-13.1H153.7z"></path> </g> </svg> 