<?xml version="1.0" encoding="UTF-8"?> <!-- Generator: Adobe Illustrator 24.0.3, SVG Export Plug-In . SVG Version: 6.00 Build 0) --> <svg xmlns="http://www.w3.org/2000/svg" xmlns:xlink="http://www.w3.org/1999/xlink" id="Слой_1" x="0px" y="0px" viewBox="0 0 300 300" style="enable-background:new 0 0 300 300;" xml:space="preserve"> <path d="M245.4,156.3c-2.8-2.8-6.4-4.3-10.3-4.3h-73.8v8.6h73.8c1.6,0,3.1,0.6,4.2,1.8c1.1,1.1,1.8,2.6,1.8,4.2l0,33.1 c0,3.3-2.7,6-6,6h-10.4c-0.3-10.9-9.3-19.8-20.3-19.8c-11,0-20,8.8-20.3,19.8H127c-1.9-7-8.3-12.2-16-12.2c-1.1,0-2.1,0.1-3.1,0.3 l14.6-45.5l53.7,53l10.6-10l-48.6-48l41.7-7.2l-2.5-14.3l-49,8.4l9.9-30.8c1.1-3.5,5.3-6.2,8.9-5.8l33.3,3.3c3.4,0.3,6.2,3.5,6,6.9 l-1.4,41.1l8.6,0.3l1.4-41.1c0.3-7.9-5.9-15-13.8-15.7L148.1,85c-7.7-0.8-15.6,4.4-17.9,11.8l-9.4,29.3l-10.9-10.7l12.5-39.9 l-6.9-2.2L104,109.6l-11.2-11l-10.2,10.4l16.5,16.3l-3.3,10.6l-32.6,5.6l2.5,14.3l25.3-4.3l-18.7,59.8l-19.6-6.5l-2.3,6.9l26.6,8.8 L99,150l14.9-2.6l-18.4,57.2c-0.6,1.7-0.9,3.5-0.9,5.4c0,9.1,7.4,16.5,16.5,16.5c7.6,0,14.1-5.2,16-12.2h58.8 c3.1,7.2,10.3,12.2,18.6,12.2c8.3,0,15.5-5,18.6-12.2h12c8.1,0,14.6-6.6,14.6-14.6l0-33.1C249.7,162.7,248.2,159.1,245.4,156.3z M103.9,134.4l1.1-3.5l2.9,2.8L103.9,134.4z M111.1,218c-4.4,0-7.9-3.6-7.9-7.9c0-4.4,3.6-7.9,7.9-7.9c4.4,0,7.9,3.6,7.9,7.9 C119,214.4,115.5,218,111.1,218z M204.4,218c-6.5,0-11.7-5.2-11.7-11.7c0-6.5,5.2-11.7,11.7-11.7c6.5,0,11.7,5.3,11.7,11.7 C216.1,212.7,210.9,218,204.4,218z"></path> </svg> 