<?xml version="1.0" encoding="UTF-8"?> <!-- Generator: Adobe Illustrator 24.0.3, SVG Export Plug-In . SVG Version: 6.00 Build 0) --> <svg xmlns="http://www.w3.org/2000/svg" xmlns:xlink="http://www.w3.org/1999/xlink" id="Слой_1" x="0px" y="0px" viewBox="0 0 300 300" style="enable-background:new 0 0 300 300;" xml:space="preserve"> <style type="text/css"> .st0{fill-rule:evenodd;clip-rule:evenodd;} </style> <g> <path class="st0" d="M169.4,152.6h51.2v-5.2h-52.5l-51.5,50.2H79.5v5.2h38.8l15.9-15.6v41.7c-1.7,2.2-2.8,5-2.8,8 c0,7.1,5.8,13,13,13c7.1,0,13-5.8,13-13c0-2.9-1-5.7-2.5-7.8l0.1-62.2h-0.1L169.4,152.6"></path> <path class="st0" d="M153.9,60.6l0,97.8h-6.8l0-97.9c0-2-1.5-3.9-3.4-3.9c-1.8,0-3.4,1.8-3.4,3.9l0,111.4h-6.8l0-111.3 c0-5.8,4.6-10.7,10.1-10.7C149.4,49.9,153.9,54.8,153.9,60.6"></path> <path class="st0" d="M116.6,180.7h-3.8c-0.5-0.6-1-1.1-1.6-1.4c-0.6-0.3-1.3-0.5-2.1-0.5c-0.6,0-1.3,0.1-1.8,0.4 c-0.6,0.2-1.1,0.6-1.5,1.1c-0.5,0.5-0.8,1-1.1,1.7c-0.3,0.6-0.4,1.3-0.4,2c0,1.5,0.5,2.7,1.4,3.7c0.9,1,2.1,1.5,3.5,1.5 c0.8,0,1.5-0.1,2.1-0.4s1.1-0.7,1.5-1.3h3.8c-0.7,1.6-1.7,2.9-3,3.7c-1.3,0.8-2.7,1.2-4.5,1.2c-1.2,0-2.3-0.2-3.3-0.7 c-1-0.5-1.9-1.1-2.7-2.1c-0.7-0.8-1.2-1.6-1.6-2.6c-0.4-1-0.5-2-0.5-3.1c0-1.1,0.2-2.2,0.6-3.2c0.4-1,1-1.9,1.9-2.7 c0.8-0.8,1.6-1.3,2.6-1.7c1-0.4,2-0.6,3.1-0.6c1.8,0,3.3,0.4,4.5,1.3C114.7,177.7,115.8,179,116.6,180.7 M96.4,175.9 c0.9,0,1.7,0.3,2.3,1c0.6,0.6,1,1.4,1,2.3c0,0.9-0.3,1.7-1,2.3c-0.6,0.6-1.4,1-2.3,1c-0.9,0-1.7-0.3-2.3-0.9 c-0.6-0.6-0.9-1.4-0.9-2.3c0-0.9,0.3-1.7,0.9-2.3C94.8,176.2,95.5,175.9,96.4,175.9z M96.4,177.1c-0.6,0-1.1,0.2-1.5,0.6 c-0.4,0.4-0.6,0.9-0.6,1.4c0,0.6,0.2,1,0.6,1.4c0.4,0.4,0.9,0.6,1.5,0.6c0.6,0,1.1-0.2,1.4-0.6c0.4-0.4,0.6-0.9,0.6-1.4 s-0.2-1-0.6-1.4C97.5,177.3,97,177.1,96.4,177.1z"></path> <path class="st0" d="M191.6,126.5v2.8h-5.5l-0.5,2.8c0.3-0.2,0.7-0.3,1-0.4c0.4-0.1,0.8-0.1,1.2-0.1c1.5,0,2.7,0.6,3.8,1.7 c1,1.1,1.6,2.4,1.6,4c0,0.7-0.1,1.4-0.4,2c-0.2,0.6-0.6,1.2-1.1,1.8c-0.6,0.7-1.2,1.2-1.9,1.5c-0.7,0.3-1.5,0.5-2.4,0.5 c-1.5,0-2.8-0.5-3.9-1.5c-1-1-1.6-2.3-1.8-3.9h3c0.1,0.7,0.4,1.3,0.9,1.8c0.5,0.4,1.1,0.7,1.7,0.7c0.7,0,1.3-0.3,1.8-0.8 c0.5-0.5,0.7-1.2,0.7-2.1c0-0.8-0.2-1.5-0.7-2c-0.5-0.5-1.1-0.8-2-0.8c-0.5,0-0.9,0.1-1.3,0.3c-0.3,0.2-0.6,0.5-0.8,0.9l-2.7-0.6 l1.5-8.4H191.6z"></path> <path class="st0" d="M217.8,131.4H214c-0.5-0.6-1-1.1-1.6-1.4c-0.6-0.3-1.3-0.5-2.1-0.5c-0.6,0-1.3,0.1-1.8,0.4 c-0.6,0.2-1.1,0.6-1.5,1.1c-0.5,0.5-0.8,1-1.1,1.7c-0.3,0.6-0.4,1.3-0.4,2c0,1.5,0.5,2.7,1.4,3.7c0.9,1,2.1,1.5,3.5,1.5 c0.8,0,1.5-0.1,2.1-0.4c0.6-0.3,1.1-0.7,1.5-1.3h3.8c-0.7,1.6-1.7,2.9-3,3.7c-1.2,0.8-2.7,1.2-4.5,1.2c-1.2,0-2.3-0.2-3.3-0.7 c-1-0.5-1.9-1.1-2.7-2.1c-0.7-0.8-1.2-1.6-1.6-2.6c-0.4-1-0.5-2-0.5-3.1c0-1.1,0.2-2.2,0.6-3.2c0.4-1,1-1.9,1.9-2.7 c0.8-0.8,1.6-1.3,2.6-1.7c1-0.4,2-0.6,3.1-0.6c1.8,0,3.3,0.4,4.5,1.3C216,128.4,217,129.7,217.8,131.4 M197.7,126.6 c0.9,0,1.7,0.3,2.3,1c0.6,0.6,1,1.4,1,2.3c0,0.9-0.3,1.7-1,2.3c-0.6,0.6-1.4,1-2.3,1c-0.9,0-1.7-0.3-2.3-0.9 c-0.6-0.6-0.9-1.4-0.9-2.3c0-0.9,0.3-1.7,0.9-2.3C196,126.9,196.8,126.6,197.7,126.6z M197.7,127.8c-0.6,0-1.1,0.2-1.5,0.6 c-0.4,0.4-0.6,0.9-0.6,1.4c0,0.6,0.2,1,0.6,1.4c0.4,0.4,0.9,0.6,1.5,0.6c0.6,0,1.1-0.2,1.4-0.6c0.4-0.4,0.6-0.9,0.6-1.4 c0-0.6-0.2-1-0.6-1.4C198.8,128,198.3,127.8,197.7,127.8z M179.5,142.7H169v-3l5.8-5.4c0.5-0.5,1-1,1.2-1.5c0.3-0.5,0.4-1,0.4-1.4 c0-0.6-0.2-1.1-0.6-1.5c-0.4-0.4-0.9-0.6-1.5-0.6c-0.6,0-1.1,0.2-1.5,0.6c-0.4,0.4-0.5,1-0.5,1.8v0.3h-3.2v0c0-1.7,0.5-3,1.4-4 c1-1,2.2-1.5,3.8-1.5c1.5,0,2.7,0.5,3.7,1.4c1,1,1.5,2.1,1.5,3.5c0,0.8-0.2,1.5-0.6,2.2c-0.4,0.7-1,1.5-1.8,2.2l-4.5,4.1h6.8V142.7 z"></path> <path class="st0" d="M80.5,181.6c0-1,0.1-1.8,0.2-2.3c0.2-0.5,0.4-1,0.8-1.5c0.5-0.7,1.2-1.3,2-1.6c0.8-0.4,1.6-0.5,2.7-0.5 c0.9,0,1.8,0.2,2.6,0.6c0.8,0.4,1.5,0.9,2.1,1.6c0.3,0.4,0.6,0.9,0.7,1.5c0.1,0.6,0.2,1.3,0.2,2.3v4.8c0,1-0.1,1.8-0.2,2.3 c-0.2,0.5-0.4,1-0.8,1.5c-0.5,0.7-1.2,1.3-2,1.6c-0.8,0.4-1.6,0.5-2.7,0.5c-0.9,0-1.8-0.2-2.6-0.6c-0.8-0.4-1.5-0.9-2.1-1.6 c-0.3-0.4-0.6-0.9-0.7-1.5c-0.2-0.6-0.2-1.3-0.2-2.3V181.6z M83.6,181.5v4.8c0,1,0.2,1.8,0.6,2.3c0.4,0.5,1,0.8,1.9,0.8 c0.8,0,1.5-0.3,1.9-0.8c0.4-0.5,0.6-1.3,0.6-2.4v-5c0-0.5,0-0.8-0.1-1c0-0.2-0.1-0.4-0.2-0.6c-0.2-0.4-0.5-0.7-0.9-0.9 c-0.4-0.2-0.8-0.3-1.3-0.3c-0.8,0-1.4,0.3-1.9,0.8C83.8,179.8,83.6,180.5,83.6,181.5z"></path> </g> </svg> 