<?xml version="1.0" encoding="UTF-8"?> <!-- Generator: Adobe Illustrator 24.0.3, SVG Export Plug-In . SVG Version: 6.00 Build 0) --> <svg xmlns="http://www.w3.org/2000/svg" xmlns:xlink="http://www.w3.org/1999/xlink" id="Слой_1" x="0px" y="0px" viewBox="0 0 300 300" style="enable-background:new 0 0 300 300;" xml:space="preserve"> <path d="M203.5,127.6l-5-9.5l-37.7,19.7l-14.7-9.1l2.2-31.5l0,0l0,0h-0.1V85.9h-29c-1.2,0-2.3-0.2-3.3-0.5c-1.4-0.4-2.7-1.1-3.8-2.1 c-0.3-0.2-0.5-0.5-0.8-0.7c-0.5-0.5-1-1.1-1.4-1.7c-0.2-0.3-0.4-0.6-0.6-0.9c-0.3-0.6-0.6-1.3-0.9-2c-0.1-0.3-0.2-0.7-0.3-1.1 c-0.1-0.7-0.2-1.5-0.2-2.2v0c0-1.2,0.2-2.3,0.5-3.3c0.8-2.4,2.4-4.5,4.4-6c1.8-1.2,3.9-1.9,6.2-1.9H164c2.3,0,4.5,0.7,6.2,1.9 c2.1,1.4,3.7,3.5,4.4,6c0.3,1,0.5,2.2,0.5,3.3v0c0,0.7-0.1,1.5-0.2,2.2c-0.3,1.4-0.8,2.7-1.6,3.9c-0.4,0.6-0.8,1.1-1.3,1.6 c-0.5,0.5-1,1-1.6,1.4c-1.4,1-3.1,1.7-4.9,2c-0.4,0.1-0.7,0.1-1.1,0.1v11.4c12.2-0.2,22.2-10.3,22.2-22.6v0 c0-12.4-10.1-22.6-22.6-22.6h-45.1c-12.4,0-22.6,10.2-22.6,22.6v0c0,12.4,10.1,22.6,22.6,22.6h16.3l-1.7,23.8l-13.2-8.2l-5.1,8.2 l0,0l0,0l17.5,10.8l-1.5,21.2l-28,14.6l0,0l0,0l5,9.5l22.2-11.6l-1.4,20c-1.7,1.1-3.4,2.3-4.8,3.7c-6.5,6.1-10.6,15-10.6,24.9 c0,1.1,0.1,2.3,0.2,3.4c0.1,1.1,0.3,2.2,0.5,3.3c0.2,1.1,0.5,2.1,0.8,3.2c0.5,1.6,1,3.1,1.7,4.5c0.2,0.5,0.4,1,0.7,1.4 c1.4,2.8,3.2,5.4,5.4,7.7c1.1,1.1,2.2,2.2,3.4,3.1c0.8,0.6,1.6,1.2,2.5,1.8c4.7,3,10.2,4.8,16.1,4.8c5.9,0,11.4-1.8,16.1-4.8 c0.9-0.6,1.7-1.2,2.5-1.8c1.2-1,2.3-2,3.4-3.1c2.1-2.3,3.9-4.8,5.4-7.7c0.2-0.5,0.5-0.9,0.7-1.4c0.7-1.5,1.2-3,1.7-4.5 c0.3-1,0.6-2.1,0.8-3.2c0.2-1.1,0.4-2.2,0.5-3.3c0.1-1.1,0.2-2.2,0.2-3.4c0-0.5,0-0.9,0-1.4c-0.1-3.2-0.7-6.4-1.6-9.3l-8,13.8 c-0.5,4.2-2.2,8.1-4.5,11.3c-1.8,2.4-4,4.4-6.5,5.9c-3.1,1.8-6.6,2.8-10.4,2.8c-3,0-5.9-0.6-8.5-1.8c-0.3-0.1-0.6-0.3-1-0.5 c-2.8-1.5-5.4-3.6-7.3-6.1c-0.4-0.6-0.9-1.2-1.3-1.8c-1.2-1.8-2.1-3.9-2.7-6.1c-0.6-2.2-1-4.5-1-6.9c0-1.7,0.2-3.3,0.5-4.9 c0.4-1.9,1-3.7,1.8-5.4c0.1-0.3,0.3-0.6,0.4-0.8c2.8-5.5,7.7-9.7,13.6-11.3l0.1-0.1l0.1-0.1l3.1-15.5h0l1.2-17.5l17.5-9.1l36.2,22.4 l5.1-8.2l-31.3-19.4L203.5,127.6z M145.3,139.6l5.5,3.4l-6,3.1L145.3,139.6z"></path> </svg> 