<?xml version="1.0" encoding="UTF-8"?> <!-- Generator: Adobe Illustrator 24.0.3, SVG Export Plug-In . SVG Version: 6.00 Build 0) --> <svg xmlns="http://www.w3.org/2000/svg" xmlns:xlink="http://www.w3.org/1999/xlink" id="Слой_1" x="0px" y="0px" viewBox="0 0 300 300" style="enable-background:new 0 0 300 300;" xml:space="preserve"> <g> <path d="M131.5,238.3v10.7h6.3v-9.4c0-4.5,3.1-8.2,7.2-9.4v-6.7C137.5,224.1,131.5,230.5,131.5,238.3z"></path> <path d="M155,223.4v6.7c4.1,1.1,7.2,4.9,7.2,9.4v9.4h6.3v-10.7C168.5,230.5,162.5,224.1,155,223.4z"></path> <g> <path d="M131.5,161.5v28.4c0,7.8,5.9,14.1,13.5,14.9v-6.9c-4.1-1.1-7.2-4.9-7.2-9.4v-25.8c0-4.5,3.1-8.2,7.2-9.4v-6.7 C137.5,147.3,131.5,153.7,131.5,161.5z"></path> <path d="M155,146.6v6.7c4.1,1.1,7.2,4.9,7.2,9.4v25.8c0,4.5-3.1,8.2-7.2,9.4v6.9c7.6-0.7,13.5-7.1,13.5-14.9v-28.4 C168.5,153.7,162.5,147.3,155,146.6z"></path> <path d="M155,70.5v6.7c4.1,1.1,7.2,4.9,7.2,9.4v25.8c0,4.5-3.1,8.2-7.2,9.4v6.9c7.6-0.7,13.5-7.1,13.5-14.9V85.4 C168.5,77.7,162.5,71.3,155,70.5z"></path> <path d="M131.5,85.4v28.4c0,7.8,5.9,14.1,13.5,14.9v-6.9c-4.1-1.1-7.2-4.9-7.2-9.4V86.6c0-4.5,3.1-8.2,7.2-9.4v-6.7 C137.5,71.3,131.5,77.7,131.5,85.4z"></path> <path d="M150.9,116.5h-1.7c-1.5,0-2.7,1.2-2.7,2.7v2.9v6.7v17.8v6.5v2c0,1.5,1.2,2.7,2.7,2.7h1.7c1.5,0,2.7-1.2,2.7-2.7v-2v-6.5 v-17.8v-6.7v-2.9C153.6,117.7,152.3,116.5,150.9,116.5z"></path> <path d="M146.4,70.5V77v1.3c0,1.5,1.2,2.7,2.7,2.7h1.7c1.5,0,2.7-1.2,2.7-2.7V77v-6.5V50.8h-7.1V70.5z"></path> </g> <path d="M150.9,193.3h-1.7c-1.5,0-2.7,1.2-2.7,2.7v2.2v6.7v18.5v6.5v2c0,1.5,1.2,2.7,2.7,2.7h1.7c1.5,0,2.7-1.2,2.7-2.7v-2v-6.5 v-18.5v-6.7V196C153.6,194.5,152.3,193.3,150.9,193.3z"></path> </g> </svg> 