<?xml version="1.0" encoding="utf-8"?>
<!-- Generator: Adobe Illustrator 18.0.0, SVG Export Plug-In . SVG Version: 6.00 Build 0)  -->
<!DOCTYPE svg PUBLIC "-//W3C//DTD SVG 1.1//EN" "http://www.w3.org/Graphics/SVG/1.1/DTD/svg11.dtd">
<svg version="1.1" xmlns="http://www.w3.org/2000/svg" xmlns:xlink="http://www.w3.org/1999/xlink" x="0px" y="0px"
	 width="147" height="62" viewBox="10 108 147 62" xml:space="preserve">

<linearGradient id="logo_1_" gradientUnits="userSpaceOnUse" x1="125.5015" y1="117.4135" x2="31.9995" y2="210.9155" gradientTransform="matrix(1 0 0 -1 0 299)">
	<stop  offset="0" style="stop-color:#00A1E1"/>
	<stop  offset="1" style="stop-color:#0091DA"/>
</linearGradient>
<path id="logo" fill="url(#logo_1_)" d="M152.818,133.082c0-3.651-0.498-6.401-1.165-9.37c-0.669-2.969-2.191-5.267-3.419-6.895
	c-1.227-1.627-3.976-2.718-5.483-2.718h-3.745v53.983H128.99v-57.998h27.006v22.998H152.818z M115.073,142.68
	c-3.662,0-6.741,0.65-8.55,1.947s-3.09,2.804-3.09,4.519c0,1.54,0.807,2.551,1.669,3.035c1.248,0.66,1.873,1.408,1.873,2.243
	c0,0.396-0.172,0.749-0.517,1.056c-0.345,0.308-0.689,0.462-1.033,0.462c-2.154,0-3.758-1.473-5.438-4.421v16.561h-9.983v-58.02
	h20.847c1.938,0,3.639,1.027,5.104,2.104c1.463,1.078,2.474,2.431,3.249,4.057c0.776,1.628,0.818,3.388,0.818,5.278v18.936
	c0,0.749-0.355,1.309-1.066,1.682C118.245,142.494,117.484,142.68,115.073,142.68z M111.008,119.324c0-1.319-0.51-2.309-1.285-3.497
	c-0.775-1.187-2.985-1.736-4.363-1.736h-5.374v33.142c1.766-4.134,6.113-6.685,11.022-7.654V119.324z M72.225,130.13
	c3.346,0,5.897,1.574,7.656,3.961c1.759,2.388,2.586,5.711,2.586,8.997h-9.214c-0.687-2.672-2.025-4.835-3.891-5.515
	c-1.866-0.679-3.646-0.207-5.34,1.413c-1.695,1.621-2.67,4.031-2.927,7.228c0.986,2.541,1.64,4.545,1.962,6.013
	c0.322,1.468,0.589,3.56,0.804,6.275c0,1.052-0.118,1.917-0.354,2.596c-0.236,0.68-0.847,2.103-1.833,3.768
	c3.173,0,5.543-0.887,7.109-2.158c1.565-1.27,2.552-2.99,2.96-5.159c0.407-2.168,0.553-5.626,0.553-9.481h10.051
	c0,4.599-0.192,8.77-0.921,11.617c-0.73,2.848-2.328,5.115-4.794,6.801c-2.467,1.686-5.85,2.656-10.653,2.656
	c-2.059,0-4.52-0.379-6.879-0.882c-2.36-0.503-4.397-1.357-6.112-2.563c-1.716-1.204-2.574-2.748-2.574-4.632
	c0-0.657,0.279-1.216,0.837-1.676c0.556-0.46,1.093-0.634,1.608-0.525c0.515,0.11,0.772,0.537,0.772,1.281
	c-0.515,0.088-0.483,0.69,0.097,1.807c0.579,1.117,1.383,1.807,2.412,2.07c1.115-0.088,2.059-0.634,2.831-1.643
	c0.772-1.007,0.879-2.343,0.322-4.008c-0.558-1.664-2.21-3.57-4.954-5.717c-3.132-2.278-5.073-4.873-5.823-7.787
	c-0.751-2.913-0.489-6.867-0.489-11.861c0-7.841,0.756-13.777,3.545-17.807c2.788-4.03,7.377-6.046,13.769-6.046
	c6.133,0,10.39,1.501,12.771,4.501c2.381,3.002,3.341,7.247,3.341,13.424H71.26c0-9.768-1.909-14.311-5.726-14.311
	c-1.716,0-3.11,0.734-4.182,2.202c-1.073,1.468-2.387,3.144-2.387,5.026v19.385C61.882,133.466,66.821,130.13,72.225,130.13z
	 M28.846,168.082H10v-57.998h27.983v19.999h-2.792c0-5.234-0.595-9.857-2.146-12.54c-1.55-2.682-4.544-3.263-8.979-3.263h-4.062
	v11.576c0.559-1.363,1.047-2.397,2.253-3.101c1.205-0.703,2.26-1.314,3.509-1.226c0.56,0.264,0.776,0.595,0.647,1.496
	c-0.13,0.902-0.345,1.973-0.991,2.105c-1.981,0.485-2.971,1.892-2.971,4.223c0,1.979,0.699,3.486,2.099,4.519
	c1.399,1.034,3.445,1.563,6.137,1.914c2.691,0.353,7.321,0.31,11.326,0.31v18.263c0,3.43-1.836,6.576-3.946,9.434
	C35.956,166.654,32.55,168.082,28.846,168.082z M30.019,139.645c-1.594,0-3.294-0.45-5.21-1.352
	c-1.917-0.901-3.496-2.254-4.788-4.058v29.886l5.272-0.066c1.636-0.043,2.843-0.691,3.618-1.944
	c0.775-1.254,1.108-2.936,1.108-5.047C30.019,157.064,30.019,139.645,30.019,139.645z"/>
</svg>
