<?xml version="1.0" encoding="utf-8"?>
<!-- Generator: Adobe Illustrator 18.0.0, SVG Export Plug-In . SVG Version: 6.00 Build 0)  -->
<!DOCTYPE svg PUBLIC "-//W3C//DTD SVG 1.1//EN" "http://www.w3.org/Graphics/SVG/1.1/DTD/svg11.dtd">
<svg version="1.1" xmlns="http://www.w3.org/2000/svg" xmlns:xlink="http://www.w3.org/1999/xlink" x="0px" y="0px"
   width="300px" height="362px" viewBox="0 0 300 362" enable-background="new 0 0 300 362" xml:space="preserve">

<symbol id="logo" viewBox="10 108 147 62" width="147" height="62">
  <linearGradient id="logo_gradient" gradientUnits="userSpaceOnUse" x1="125.5015" y1="117.4135" x2="31.9995" y2="210.9155" gradientTransform="matrix(1 0 0 -1 0 299)">
    <stop  offset="0" style="stop-color:#00A1E1"/>
    <stop  offset="1" style="stop-color:#0091DA"/>
  </linearGradient>
  <path fill="url(#logo_gradient)" d="M152.818,133.082c0-3.651-0.498-6.401-1.165-9.37c-0.669-2.969-2.191-5.267-3.419-6.895
    c-1.227-1.627-3.976-2.718-5.483-2.718h-3.745v53.983H128.99v-57.998h27.006v22.998H152.818z M115.073,142.68
    c-3.662,0-6.741,0.65-8.55,1.947s-3.09,2.804-3.09,4.519c0,1.54,0.807,2.551,1.669,3.035c1.248,0.66,1.873,1.408,1.873,2.243
    c0,0.396-0.172,0.749-0.517,1.056c-0.345,0.308-0.689,0.462-1.033,0.462c-2.154,0-3.758-1.473-5.438-4.421v16.561h-9.983v-58.02
    h20.847c1.938,0,3.639,1.027,5.104,2.104c1.463,1.078,2.474,2.431,3.249,4.057c0.776,1.628,0.818,3.388,0.818,5.278v18.936
    c0,0.749-0.355,1.309-1.066,1.682C118.245,142.494,117.484,142.68,115.073,142.68z M111.008,119.324c0-1.319-0.51-2.309-1.285-3.497
    c-0.775-1.187-2.985-1.736-4.363-1.736h-5.374v33.142c1.766-4.134,6.113-6.685,11.022-7.654V119.324z M72.225,130.13
    c3.346,0,5.897,1.574,7.656,3.961c1.759,2.388,2.586,5.711,2.586,8.997h-9.214c-0.687-2.672-2.025-4.835-3.891-5.515
    c-1.866-0.679-3.646-0.207-5.34,1.413c-1.695,1.621-2.67,4.031-2.927,7.228c0.986,2.541,1.64,4.545,1.962,6.013
    c0.322,1.468,0.589,3.56,0.804,6.275c0,1.052-0.118,1.917-0.354,2.596c-0.236,0.68-0.847,2.103-1.833,3.768
    c3.173,0,5.543-0.887,7.109-2.158c1.565-1.27,2.552-2.99,2.96-5.159c0.407-2.168,0.553-5.626,0.553-9.481h10.051
    c0,4.599-0.192,8.77-0.921,11.617c-0.73,2.848-2.328,5.115-4.794,6.801c-2.467,1.686-5.85,2.656-10.653,2.656
    c-2.059,0-4.52-0.379-6.879-0.882c-2.36-0.503-4.397-1.357-6.112-2.563c-1.716-1.204-2.574-2.748-2.574-4.632
    c0-0.657,0.279-1.216,0.837-1.676c0.556-0.46,1.093-0.634,1.608-0.525c0.515,0.11,0.772,0.537,0.772,1.281
    c-0.515,0.088-0.483,0.69,0.097,1.807c0.579,1.117,1.383,1.807,2.412,2.07c1.115-0.088,2.059-0.634,2.831-1.643
    c0.772-1.007,0.879-2.343,0.322-4.008c-0.558-1.664-2.21-3.57-4.954-5.717c-3.132-2.278-5.073-4.873-5.823-7.787
    c-0.751-2.913-0.489-6.867-0.489-11.861c0-7.841,0.756-13.777,3.545-17.807c2.788-4.03,7.377-6.046,13.769-6.046
    c6.133,0,10.39,1.501,12.771,4.501c2.381,3.002,3.341,7.247,3.341,13.424H71.26c0-9.768-1.909-14.311-5.726-14.311
    c-1.716,0-3.11,0.734-4.182,2.202c-1.073,1.468-2.387,3.144-2.387,5.026v19.385C61.882,133.466,66.821,130.13,72.225,130.13z
    M28.846,168.082H10v-57.998h27.983v19.999h-2.792c0-5.234-0.595-9.857-2.146-12.54c-1.55-2.682-4.544-3.263-8.979-3.263h-4.062
    v11.576c0.559-1.363,1.047-2.397,2.253-3.101c1.205-0.703,2.26-1.314,3.509-1.226c0.56,0.264,0.776,0.595,0.647,1.496
    c-0.13,0.902-0.345,1.973-0.991,2.105c-1.981,0.485-2.971,1.892-2.971,4.223c0,1.979,0.699,3.486,2.099,4.519
    c1.399,1.034,3.445,1.563,6.137,1.914c2.691,0.353,7.321,0.31,11.326,0.31v18.263c0,3.43-1.836,6.576-3.946,9.434
    C35.956,166.654,32.55,168.082,28.846,168.082z M30.019,139.645c-1.594,0-3.294-0.45-5.21-1.352
    c-1.917-0.901-3.496-2.254-4.788-4.058v29.886l5.272-0.066c1.636-0.043,2.843-0.691,3.618-1.944
    c0.775-1.254,1.108-2.936,1.108-5.047C30.019,157.064,30.019,139.645,30.019,139.645z"/>
</symbol>

<symbol id="icon-box" viewBox="10 10 39 39" width="39" height="39">
  <path d="M10,10v39h38.99V10H10z M47.002,12.011l-0.018-0.018h0.018V12.011z M40.996,35H29.99
    l4.021-4.021l6.985,0.018C40.996,30.997,40.996,35,40.996,35z M17.985,24H28.99l-4,4h-7.005V24z M17.985,29.979l5.008,0.017
    l-5.008,5.008V29.979z M17.99,37l18.997-18.997h4.003V22l-19,19h-4C17.99,41,17.99,37,17.99,37z M40.996,29H35.99l5.006-5.006V29z
    M30.99,22H17.985v-3.997h17.002L30.99,22z M27.99,37h13.006v4H23.99L27.99,37z M40.993,16.002H17.987L17.99,16l-4.006-4.006h31.012
    L40.99,16L40.993,16.002z M15.99,18l0.001-0.001v23.002L15.99,41l-3.971,3.971V14.029L15.99,18z M17.99,43h23l4.007,4.007H13.983
    L17.99,43z M42.99,18l4.012-4.012v31.024L42.99,41V18z M46.983,47.007l0.019-0.019v0.019H46.983z"/>
</symbol>

<symbol id="icon-calc" viewBox="109 10 37 39" width="37" height="39">
  <g>
    <path d="M117.782,23.985h19.216c0.604-0.629,0.995-1.314,0.995-2.432c0-1.128-0.398-1.925-1.013-2.553h-19.186
      c-0.482,0.628-0.795,1.425-0.795,2.553C117,22.671,117.307,23.356,117.782,23.985z"/>
    <path d="M122.993,38.505c0,1.381-1.123,2.501-2.51,2.501c-1.386,0-2.509-1.12-2.509-2.501s1.123-2.5,2.509-2.5
      C121.87,36.005,122.993,37.125,122.993,38.505z"/>
    <path d="M129.993,38.505c0,1.381-1.123,2.501-2.51,2.501c-1.386,0-2.509-1.12-2.509-2.501s1.123-2.5,2.509-2.5
      C128.87,36.005,129.993,37.125,129.993,38.505z"/>
    <path d="M136.993,38.505c0,1.381-1.123,2.501-2.51,2.501c-1.386,0-2.509-1.12-2.509-2.501s1.123-2.5,2.509-2.5
      C135.87,36.005,136.993,37.125,136.993,38.505z"/>
    <path d="M122.993,31.505c0,1.382-1.123,2.501-2.51,2.501c-1.386,0-2.509-1.12-2.509-2.501s1.123-2.5,2.509-2.5
      C121.87,29.005,122.993,30.125,122.993,31.505z"/>
    <path d="M129.993,31.505c0,1.382-1.123,2.501-2.51,2.501c-1.386,0-2.509-1.12-2.509-2.501s1.123-2.5,2.509-2.5
      C128.87,29.005,129.993,30.125,129.993,31.505z"/>
    <path d="M136.993,31.505c0,1.382-1.123,2.501-2.51,2.501c-1.386,0-2.509-1.12-2.509-2.501s1.123-2.5,2.509-2.5
      C135.87,29.005,136.993,30.125,136.993,31.505z"/>
    <path d="M127.5,10c-7.199,0-13.724,0.977-18.5,2.559v33.883C113.776,48.023,120.301,49,127.5,49
      c7.199,0,13.724-0.977,18.5-2.559V12.559C141.224,10.977,134.699,10,127.5,10z M144,44.961C139.411,46.278,133.635,47,127.5,47
      s-11.911-0.722-16.5-2.039V14.039C115.589,12.722,121.365,12,127.5,12c6.135,0,11.911,0.722,16.5,2.039V44.961z"/>
  </g>
</symbol>

<symbol id="icon-rur" viewBox="65 10 28 37" width="28" height="37">
  <g>
    <path d="M72.022,41.024h2.001L74,37.628l3.997,0.001v-1.625L74,35.985v-2.122l2.178-0.028
      c0.821-0.017,1.629-0.122,2.425-0.315c0.795-0.192,1.503-0.515,2.123-0.969c0.619-0.455,1.118-1.048,1.493-1.783
      c0.376-0.733,0.564-1.651,0.564-2.752c0-1.118-0.186-2.496-0.553-3.212c-0.368-0.716-0.852-1.283-1.456-1.704
      c-0.602-0.419-1.293-0.707-2.07-0.864C77.928,22.079,77.137,22,76.333,22c-0.752,0-1.507,0.026-2.268,0.079
      c-0.76,0.053-1.383,0.163-2.046,0.321l0.003,9.623l-2.03-0.006v1.819l2.03,0.006l-0.023,2.161l-2.03-0.006v1.625l2.03,0.006
      L72.022,41.024z M75.088,23.874c0.412-0.026,0.842-0.039,1.297-0.039c0.56,0,1.088,0.061,1.586,0.183s0.935,0.326,1.312,0.614
      c0.375,0.288,0.671,0.671,0.891,1.15c0.218,0.479,0.322,1.535,0.304,2.249c0.018,0.837-0.104,1.511-0.368,2.025
      c-0.261,0.513-0.602,0.918-1.021,1.214c-0.419,0.296-0.891,0.497-1.416,0.601c-0.524,0.104-1.049,0.157-1.572,0.157l-2.08-0.014
      l-0.002-8.035C74.262,23.926,74.677,23.901,75.088,23.874z"/>
    <path d="M68,47h22c1.809,0,3-1.192,3-3V18.979L84.021,10H68c-1.808,0-3,1.192-3,3v31C65,45.808,66.191,47,68,47z
      M67,13c0-0.702,0.299-1,1-1h14v6c0,2.092,0.908,3,3,3h6v23c0,0.702-0.297,1-1,1H68c-0.703,0-1-0.298-1-1V13z"/>
  </g>
</symbol>

<symbol id="icon-docs" viewBox="159 10 31 39" width="31" height="39">
  <g>
    <g>
      <path d="M174.021,17H162c-1.808,0-3,1.192-3,3v26c0,1.808,1.192,3,3,3h18c1.809,0,3-1.192,3-3V25.979L174.021,17z
        M180,47h-18c-0.702,0-1-0.298-1-1V20c0-0.702,0.299-1,1-1h10v6c0,2.092,0.908,3,3,3h6v18C181,46.702,180.703,47,180,47z"/>
    </g>
    <path d="M187,10h-18c-1.809,0-3,1.192-3,3v2h2v-2c0-0.702,0.297-1,1-1h18c0.702,0,1,0.298,1,1v26
      c0,0.702-0.299,1-1,1h-2v2h2c1.808,0,3-1.192,3-3V13C190,11.192,188.808,10,187,10z"/>
    <rect x="164" y="22" width="5" height="2"/>
    <rect x="164" y="27" width="6" height="2"/>
    <rect x="164" y="32" width="14" height="2"/>
    <rect x="164" y="37" width="14" height="2"/>
    <rect x="164" y="42" width="10" height="2"/>
    <polygon points="178,17 185,17 185,15 176,15"/>
    <polygon points="183,22 185,22 185,20 181,20"/>
  </g>
</symbol>

<!-- Шаги мастера заявок
<g>
  <path fill="#CFDFE6" d="M213.349,225.005c-8.759,0-16.13,5.93-18.327,13.993h-55.346c-2.197-8.063-9.568-13.993-18.327-13.993
    c-8.759,0-16.129,5.93-18.327,13.993H47.337v2h55.253h2.04c1.421-7.953,8.357-13.994,16.718-13.994s15.297,6.041,16.717,13.994
    h2.043h54.482h2.04c1.421-7.953,8.357-13.994,16.718-13.994c9.388,0,16.998,7.61,16.998,16.998s-7.61,16.999-16.998,16.999
    c-8.364,0-15.302-6.046-16.719-14.003h-2.041H140.11h-2.044c-1.417,7.957-8.354,14.003-16.718,14.003s-15.302-6.046-16.719-14.003
    h-2.041H47.337v2h55.682c2.194,8.068,9.567,14.003,18.33,14.003s16.136-5.935,18.33-14.003h55.34
    c2.194,8.068,9.567,14.003,18.33,14.003c10.493,0,18.998-8.506,18.998-18.998S223.842,225.005,213.349,225.005z"/>
  <path id="path-1_1_" fill="#00A4E4" d="M79.986,248.993H47.311c-2.196,8.065-9.552,14.003-18.313,14.003
    C18.506,262.996,10,254.49,10,243.998S18.506,225,28.998,225c8.757,0,16.11,5.933,18.31,13.993h26.678L79.986,248.993z"/>
</g>
<g>
  <path fill="#CFDFE6" d="M213.349,267.004c-8.759,0-16.13,5.93-18.327,13.993h-55.346c-2.197-8.063-9.568-13.993-18.327-13.993
    c-8.759,0-16.129,5.93-18.327,13.993H47.337v2h55.253h2.04c1.421-7.953,8.357-13.994,16.718-13.994s15.297,6.041,16.717,13.994
    h2.043h54.482h2.04c1.421-7.953,8.357-13.994,16.718-13.994c9.388,0,16.998,7.61,16.998,16.998S222.736,303,213.348,303
    c-8.364,0-15.302-6.046-16.719-14.003h-2.041H140.11h-2.044c-1.417,7.957-8.354,14.003-16.718,14.003s-15.302-6.046-16.719-14.003
    h-2.041H47.337v2h55.682c2.194,8.068,9.567,14.003,18.33,14.003s16.136-5.935,18.33-14.003h55.34
    c2.194,8.068,9.567,14.003,18.33,14.003c10.493,0,18.998-8.506,18.998-18.998S223.842,267.004,213.349,267.004z"/>
  <path fill="#00A4E4" d="M166.319,280.992h-26.678c-2.2-8.06-9.553-13.993-18.31-13.993c-8.757,0-16.11,5.933-18.31,13.993H47.308
    c-2.2-8.06-9.553-13.993-18.31-13.993c-10.492,0-18.998,8.506-18.998,18.998s8.506,18.998,18.998,18.998
    c8.761,0,16.117-5.938,18.313-14.003h55.708c2.196,8.065,9.552,14.003,18.312,14.003c8.761,0,16.117-5.938,18.313-14.003h32.675
    L166.319,280.992z"/>
</g>
<g>
  <path fill="#00A4E4" d="M195.039,322.998c2.2-8.06,9.553-13.993,18.31-13.993c10.492,0,18.998,8.506,18.998,18.998
    s-8.506,18.998-18.998,18.998c-8.761,0-16.117-5.938-18.313-14.003h-55.393c-2.198,8.062-9.552,13.998-18.311,13.998
    c-0.033,0-0.065-0.004-0.099-0.004c-0.073,0.001-0.144,0.009-0.217,0.009c-8.761,0-16.117-5.938-18.313-14.003l-55.392-0.005
    c-2.196,8.065-9.552,14.003-18.313,14.003C18.506,346.996,10,338.49,10,327.998S18.506,309,28.998,309
    c8.757,0,16.11,5.933,18.31,13.993h55.399c2.202-8.057,9.553-13.988,18.308-13.988c0.033,0,0.065,0.004,0.099,0.004
    c0.073-0.001,0.144-0.009,0.217-0.009c8.757,0,16.11,5.933,18.31,13.993L195.039,322.998z"/>
</g>
-->

<g fill="#444">
  <use xlink:href="#icon-box" x="0"/>
  <use xlink:href="#icon-calc" x="40"/>
  <use xlink:href="#icon-rur" x="80"/>
  <use xlink:href="#icon-docs" x="120"/>
  <use xlink:href="#logo" x="0" y="60"/>
</g>

</svg>
