<svg xmlns="http://www.w3.org/2000/svg" width="147" height="62" viewBox="10 108 147 62"><linearGradient id="logo_1_" gradientUnits="userSpaceOnUse" x1="125.501" y1="117.413" x2="32" y2="210.916" gradientTransform="matrix(1 0 0 -1 0 299)"><stop offset="0" stop-color="#00a1e1"/><stop offset="1" stop-color="#0091da"/></linearGradient><path id="logo" fill="url(#logo_1_)" d="M152.818 133.082c0-3.651-.498-6.401-1.165-9.37-.669-2.969-2.191-5.267-3.419-6.895-1.227-1.627-3.976-2.718-5.483-2.718h-3.745v53.983H128.99v-57.998h27.006v22.998h-3.178zm-37.745 9.598c-3.662 0-6.741.65-8.55 1.947s-3.09 2.804-3.09 4.519c0 1.54.807 2.551 1.669 3.035 1.248.66 1.873 1.408 1.873 2.243 0 .396-.172.749-.517 1.056-.345.308-.689.462-1.033.462-2.154 0-3.758-1.473-5.438-4.421v16.561h-9.983v-58.02h20.847c1.938 0 3.639 1.027 5.104 2.104 1.463 1.078 2.474 2.431 3.249 4.057.776 1.628.818 3.388.818 5.278v18.936c0 .749-.355 1.309-1.066 1.682-.711.375-1.472.561-3.883.561zm-4.065-23.356c0-1.319-.51-2.309-1.285-3.497-.775-1.187-2.985-1.736-4.363-1.736h-5.374v33.142c1.766-4.134 6.113-6.685 11.022-7.654v-20.255zM72.225 130.13c3.346 0 5.897 1.574 7.656 3.961 1.759 2.388 2.586 5.711 2.586 8.997h-9.214c-.687-2.672-2.025-4.835-3.891-5.515-1.866-.679-3.646-.207-5.34 1.413-1.695 1.621-2.67 4.031-2.927 7.228.986 2.541 1.64 4.545 1.962 6.013.322 1.468.589 3.56.804 6.275 0 1.052-.118 1.917-.354 2.596-.236.68-.847 2.103-1.833 3.768 3.173 0 5.543-.887 7.109-2.158 1.565-1.27 2.552-2.99 2.96-5.159.407-2.168.553-5.626.553-9.481h10.051c0 4.599-.192 8.77-.921 11.617-.73 2.848-2.328 5.115-4.794 6.801-2.467 1.686-5.85 2.656-10.653 2.656-2.059 0-4.52-.379-6.879-.882-2.36-.503-4.397-1.357-6.112-2.563-1.716-1.204-2.574-2.748-2.574-4.632 0-.657.279-1.216.837-1.676.556-.46 1.093-.634 1.608-.525.515.11.772.537.772 1.281-.515.088-.483.69.097 1.807.579 1.117 1.383 1.807 2.412 2.07 1.115-.088 2.059-.634 2.831-1.643.772-1.007.879-2.343.322-4.008-.558-1.664-2.21-3.57-4.954-5.717-3.132-2.278-5.073-4.873-5.823-7.787-.751-2.913-.489-6.867-.489-11.861 0-7.841.756-13.777 3.545-17.807 2.788-4.03 7.377-6.046 13.769-6.046 6.133 0 10.39 1.501 12.771 4.501 2.381 3.002 3.341 7.247 3.341 13.424H71.26c0-9.768-1.909-14.311-5.726-14.311-1.716 0-3.11.734-4.182 2.202-1.073 1.468-2.387 3.144-2.387 5.026v19.385c2.917-5.914 7.856-9.25 13.26-9.25zm-43.379 37.952H10v-57.998h27.983v19.999h-2.792c0-5.234-.595-9.857-2.146-12.54-1.55-2.682-4.544-3.263-8.979-3.263h-4.062v11.576c.559-1.363 1.047-2.397 2.253-3.101 1.205-.703 2.26-1.314 3.509-1.226.56.264.776.595.647 1.496-.13.902-.345 1.973-.991 2.105-1.981.485-2.971 1.892-2.971 4.223 0 1.979.699 3.486 2.099 4.519 1.399 1.034 3.445 1.563 6.137 1.914 2.691.353 7.321.31 11.326.31v18.263c0 3.43-1.836 6.576-3.946 9.434-2.111 2.861-5.517 4.289-9.221 4.289zm1.173-28.437c-1.594 0-3.294-.45-5.21-1.352-1.917-.901-3.496-2.254-4.788-4.058v29.886l5.272-.066c1.636-.043 2.843-.691 3.618-1.944.775-1.254 1.108-2.936 1.108-5.047v-17.419z"/></svg>