<svg xmlns="http://www.w3.org/2000/svg" width="300" height="362"><symbol id="icon-box" viewBox="10 10 39 39"><path d="M10 10v39h38.99V10H10zm37.002 2.011l-.018-.018h.018v.018zM40.996 35H29.99l4.021-4.021 6.985.018V35zM17.985 24H28.99l-4 4h-7.005v-4zm0 5.979l5.008.017-5.008 5.008v-5.025zM17.99 37l18.997-18.997h4.003V22l-19 19h-4v-4zm23.006-8H35.99l5.006-5.006V29zM30.99 22H17.985v-3.997h17.002L30.99 22zm-3 15h13.006v4H23.99l4-4zm13.003-20.998H17.987L17.99 16l-4.006-4.006h31.012L40.99 16l.003.002zM15.99 18l.001-.001v23.002L15.99 41l-3.971 3.971V14.029L15.99 18zm2 25h23l4.007 4.007H13.983L17.99 43zm25-25l4.012-4.012v31.024L42.99 41V18zm3.993 29.007l.019-.019v.019h-.019z"/></symbol><symbol id="icon-calc" viewBox="109 10 37 39"><path d="M117.782 23.985h19.216c.604-.629.995-1.314.995-2.432 0-1.128-.398-1.925-1.013-2.553h-19.186c-.482.628-.795 1.425-.795 2.553.001 1.118.308 1.803.783 2.432zm5.211 14.52a2.505 2.505 0 01-2.51 2.501c-1.386 0-2.509-1.12-2.509-2.501s1.123-2.5 2.509-2.5c1.387 0 2.51 1.12 2.51 2.5zm7 0a2.505 2.505 0 01-2.51 2.501c-1.386 0-2.509-1.12-2.509-2.501s1.123-2.5 2.509-2.5c1.387 0 2.51 1.12 2.51 2.5zm7 0a2.505 2.505 0 01-2.51 2.501c-1.386 0-2.509-1.12-2.509-2.501s1.123-2.5 2.509-2.5c1.387 0 2.51 1.12 2.51 2.5zm-14-7a2.505 2.505 0 01-2.51 2.501c-1.386 0-2.509-1.12-2.509-2.501s1.123-2.5 2.509-2.5c1.387 0 2.51 1.12 2.51 2.5zm7 0a2.505 2.505 0 01-2.51 2.501c-1.386 0-2.509-1.12-2.509-2.501s1.123-2.5 2.509-2.5c1.387 0 2.51 1.12 2.51 2.5zm7 0a2.505 2.505 0 01-2.51 2.501c-1.386 0-2.509-1.12-2.509-2.501s1.123-2.5 2.509-2.5c1.387 0 2.51 1.12 2.51 2.5z"/><path d="M127.5 10c-7.199 0-13.724.977-18.5 2.559v33.883C113.776 48.023 120.301 49 127.5 49s13.724-.977 18.5-2.559V12.559C141.224 10.977 134.699 10 127.5 10zM144 44.961C139.411 46.278 133.635 47 127.5 47s-11.911-.722-16.5-2.039V14.039C115.589 12.722 121.365 12 127.5 12s11.911.722 16.5 2.039v30.922z"/></symbol><symbol id="icon-rur" viewBox="65 10 28 37"><path d="M72.022 41.024h2.001L74 37.628l3.997.001v-1.625L74 35.985v-2.122l2.178-.028a11.247 11.247 0 002.425-.315 5.894 5.894 0 002.123-.969 4.981 4.981 0 001.493-1.783c.376-.733.564-1.651.564-2.752 0-1.118-.186-2.496-.553-3.212-.368-.716-.852-1.283-1.456-1.704a5.48 5.48 0 00-2.07-.864A11.932 11.932 0 0076.333 22c-.752 0-1.507.026-2.268.079a12.05 12.05 0 00-2.046.321l.003 9.623-2.03-.006v1.819l2.03.006-.023 2.161-2.03-.006v1.625l2.03.006.023 3.396zm3.066-17.15c.412-.026.842-.039 1.297-.039.56 0 1.088.061 1.586.183s.935.326 1.312.614c.375.288.671.671.891 1.15.218.479.322 1.535.304 2.249.018.837-.104 1.511-.368 2.025a3.265 3.265 0 01-1.021 1.214 3.656 3.656 0 01-1.416.601 8.066 8.066 0 01-1.572.157l-2.08-.014-.002-8.035c.243-.053.658-.078 1.069-.105z"/><path d="M68 47h22c1.809 0 3-1.192 3-3V18.979L84.021 10H68c-1.808 0-3 1.192-3 3v31c0 1.808 1.191 3 3 3zm-1-34c0-.702.299-1 1-1h14v6c0 2.092.908 3 3 3h6v23c0 .702-.297 1-1 1H68c-.703 0-1-.298-1-1V13z"/></symbol><symbol id="icon-docs" viewBox="159 10 31 39"><path d="M174.021 17H162c-1.808 0-3 1.192-3 3v26c0 1.808 1.192 3 3 3h18c1.809 0 3-1.192 3-3V25.979L174.021 17zM180 47h-18c-.702 0-1-.298-1-1V20c0-.702.299-1 1-1h10v6c0 2.092.908 3 3 3h6v18c0 .702-.297 1-1 1z"/><path d="M187 10h-18c-1.809 0-3 1.192-3 3v2h2v-2c0-.702.297-1 1-1h18c.702 0 1 .298 1 1v26c0 .702-.299 1-1 1h-2v2h2c1.808 0 3-1.192 3-3V13c0-1.808-1.192-3-3-3zm-23 12h5v2h-5zm0 5h6v2h-6z"/><path d="M164 32h14v2h-14zm0 5h14v2h-14zm0 5h10v2h-10zm14-25h7v-2h-9zm5 5h2v-2h-4z"/></symbol></svg>